<svg width="481" height="45" viewBox="0 0 481 45" fill="none" xmlns="http://www.w3.org/2000/svg">
<rect x="480.5" y="0.5" width="44" height="480" transform="rotate(90 480.5 0.5)" fill="#1889D5" fill-opacity="0.8"/>
<path d="M177.832 32.5L177.832 18.2227L179.834 18.2227L179.834 30.7617L186.035 30.7617L186.035 32.5L177.832 32.5ZM196.514 32.5L188.496 32.5L188.496 18.2227L196.514 18.2227L196.514 19.9414L190.498 19.9414L190.498 24.1895L196.153 24.1895L196.153 25.8887L190.498 25.8887L190.498 30.7715L196.514 30.7715L196.514 32.5ZM208.535 32.5L206.953 28.252L201.358 28.252L199.795 32.5L197.715 32.5L203.164 18.1641L205.215 18.1641L210.635 32.5L208.535 32.5ZM206.397 26.5137L204.893 22.3047C204.847 22.1615 204.776 21.9466 204.678 21.6602C204.587 21.3737 204.492 21.0775 204.395 20.7715C204.304 20.4655 204.229 20.2116 204.17 20.0098C204.105 20.2767 204.03 20.5599 203.946 20.8594C203.861 21.1523 203.776 21.429 203.692 21.6895C203.614 21.9434 203.548 22.1484 203.496 22.3047L201.973 26.5137L206.397 26.5137ZM216.514 18.2227C217.718 18.2227 218.711 18.3724 219.492 18.6719C220.28 18.9648 220.866 19.4141 221.25 20.0195C221.634 20.6185 221.826 21.3802 221.826 22.3047C221.826 23.0339 221.693 23.6491 221.426 24.1504C221.159 24.6517 220.808 25.0618 220.371 25.3809C219.942 25.6999 219.479 25.9505 218.985 26.1328L222.979 32.5L220.684 32.5L217.207 26.6602L214.58 26.6602L214.58 32.5L212.578 32.5L212.578 18.2227L216.514 18.2227ZM216.387 19.9219L214.58 19.9219L214.58 24.9902L216.524 24.9902C217.65 24.9902 218.474 24.7721 218.994 24.3359C219.515 23.8932 219.776 23.2422 219.776 22.3828C219.776 21.4909 219.499 20.8594 218.946 20.4883C218.392 20.1107 217.539 19.9219 216.387 19.9219ZM236.68 32.5L234.278 32.5L226.885 20.8008L226.807 20.8008C226.826 21.1523 226.849 21.5397 226.875 21.9629C226.901 22.3796 226.921 22.819 226.934 23.2812C226.953 23.737 226.966 24.1992 226.973 24.668L226.973 32.5L225.137 32.5L225.137 18.2227L227.52 18.2227L234.883 29.8633L234.951 29.8633C234.938 29.5768 234.922 29.222 234.903 28.7988C234.883 28.3756 234.864 27.9297 234.844 27.4609C234.831 26.9857 234.824 26.5365 234.824 26.1133L234.824 18.2227L236.68 18.2227L236.68 32.5ZM251.924 32.5L247.471 20.2246L247.393 20.2246C247.412 20.4915 247.432 20.8366 247.451 21.2598C247.477 21.6764 247.497 22.1322 247.51 22.6269C247.53 23.1152 247.539 23.597 247.539 24.0723L247.539 32.5L245.703 32.5L245.703 18.2227L248.584 18.2227L252.813 29.8535L252.881 29.8535L257.217 18.2227L260.078 18.2227L260.078 32.5L258.145 32.5L258.145 23.9551C258.145 23.5254 258.151 23.0794 258.164 22.6172C258.177 22.1484 258.194 21.7057 258.213 21.2891C258.239 20.8659 258.262 20.5176 258.281 20.2441L258.194 20.2441L253.633 32.5L251.924 32.5ZM276.436 25.3418C276.436 26.4421 276.296 27.4447 276.016 28.3496C275.736 29.248 275.319 30.0228 274.766 30.6738C274.219 31.3184 273.532 31.8164 272.705 32.168C271.885 32.5195 270.925 32.6953 269.824 32.6953C268.705 32.6953 267.728 32.5195 266.895 32.168C266.068 31.8164 265.381 31.3151 264.834 30.6641C264.287 30.013 263.877 29.235 263.604 28.3301C263.337 27.4251 263.203 26.4225 263.203 25.3223C263.203 23.8574 263.444 22.5749 263.926 21.4746C264.408 20.3743 265.14 19.5215 266.123 18.916C267.113 18.304 268.356 17.998 269.854 17.998C271.299 17.998 272.51 18.3008 273.487 18.9062C274.463 19.5117 275.199 20.3646 275.694 21.4648C276.188 22.5586 276.436 23.8509 276.436 25.3418ZM265.303 25.3418C265.303 26.5006 265.462 27.5033 265.781 28.3496C266.107 29.1894 266.602 29.8405 267.266 30.3027C267.936 30.7585 268.789 30.9863 269.824 30.9863C270.873 30.9863 271.729 30.7585 272.393 30.3027C273.057 29.8405 273.545 29.1894 273.858 28.3496C274.17 27.5033 274.326 26.5006 274.326 25.3418C274.326 23.584 273.968 22.2103 273.252 21.2207C272.536 20.2246 271.403 19.7266 269.854 19.7266C268.812 19.7266 267.956 19.9544 267.285 20.4102C266.615 20.8594 266.117 21.5039 265.791 22.3437C265.466 23.1771 265.303 24.1764 265.303 25.3418ZM283.487 18.2227C284.691 18.2227 285.684 18.3724 286.465 18.6719C287.253 18.9648 287.839 19.4141 288.223 20.0195C288.607 20.6185 288.799 21.3802 288.799 22.3047C288.799 23.0338 288.666 23.6491 288.399 24.1504C288.132 24.6517 287.78 25.0618 287.344 25.3809C286.914 25.6999 286.452 25.9505 285.957 26.1328L289.951 32.5L287.656 32.5L284.18 26.6602L281.553 26.6602L281.553 32.5L279.551 32.5L279.551 18.2227L283.487 18.2227ZM283.36 19.9219L281.553 19.9219L281.553 24.9902L283.496 24.9902C284.623 24.9902 285.446 24.7721 285.967 24.3359C286.488 23.8932 286.748 23.2422 286.748 22.3828C286.748 21.4909 286.472 20.8594 285.918 20.4883C285.365 20.1107 284.512 19.9219 283.36 19.9219ZM300.127 32.5L292.11 32.5L292.11 18.2227L300.127 18.2227L300.127 19.9414L294.112 19.9414L294.112 24.1894L299.766 24.1894L299.766 25.8887L294.112 25.8887L294.112 30.7715L300.127 30.7715L300.127 32.5ZM312.998 24.6875L316.953 24.6875L316.953 26.2109L312.998 26.2109L312.998 30.2637L311.455 30.2637L311.455 26.2109L307.49 26.2109L307.49 24.6875L311.455 24.6875L311.455 20.6152L312.998 20.6152L312.998 24.6875Z" fill="white"/>
</svg>
