<svg width="44" height="645" viewBox="0 0 44 645" fill="none" xmlns="http://www.w3.org/2000/svg">
<rect width="44" height="645" fill="#1889D5" fill-opacity="0.8"/>
<path d="M32 407.368L17.7227 407.368L17.7227 405.366L30.2617 405.366L30.2617 399.165L32 399.165L32 407.368ZM32 388.686L32 396.704L17.7227 396.704L17.7227 388.686L19.4414 388.686L19.4414 394.702L23.6895 394.702L23.6895 389.047L25.3887 389.047L25.3887 394.702L30.2715 394.702L30.2715 388.686L32 388.686ZM32 376.665L27.752 378.247L27.752 383.842L32 385.405L32 387.485L17.6641 382.036L17.6641 379.985L32 374.565L32 376.665ZM26.0137 378.803L21.8047 380.307C21.6615 380.353 21.4466 380.424 21.1602 380.522C20.8737 380.613 20.5775 380.708 20.2715 380.805C19.9655 380.896 19.7116 380.971 19.5098 381.03C19.7767 381.095 20.0599 381.17 20.3594 381.254C20.6523 381.339 20.929 381.424 21.1895 381.508C21.4434 381.586 21.6484 381.652 21.8047 381.704L26.0137 383.227L26.0137 378.803ZM17.7227 368.686C17.7227 367.482 17.8724 366.489 18.1719 365.708C18.4648 364.92 18.9141 364.334 19.5195 363.95C20.1185 363.566 20.8802 363.374 21.8047 363.374C22.5339 363.374 23.1491 363.507 23.6504 363.774C24.1517 364.041 24.5618 364.392 24.8809 364.829C25.1999 365.258 25.4505 365.721 25.6328 366.215L32 362.221L32 364.516L26.1602 367.993L26.1602 370.62L32 370.62L32 372.622L17.7227 372.622L17.7227 368.686ZM19.4219 368.813L19.4219 370.62L24.4902 370.62L24.4902 368.676C24.4902 367.55 24.2721 366.726 23.8359 366.206C23.3932 365.685 22.7422 365.424 21.8828 365.424C20.9909 365.424 20.3594 365.701 19.9883 366.254C19.6107 366.808 19.4219 367.661 19.4219 368.813ZM32 348.52L32 350.922L20.3008 358.315L20.3008 358.393C20.6523 358.374 21.0397 358.351 21.4629 358.325C21.8796 358.299 22.319 358.279 22.7812 358.266C23.237 358.247 23.6992 358.234 24.168 358.227L32 358.227L32 360.063L17.7227 360.063L17.7227 357.68L29.3633 350.317L29.3633 350.249C29.0768 350.262 28.722 350.278 28.2988 350.297C27.8756 350.317 27.4297 350.336 26.9609 350.356C26.4857 350.369 26.0365 350.376 25.6133 350.376L17.7227 350.376L17.7227 348.52L32 348.52ZM32 333.276L19.7246 337.729L19.7246 337.807C19.9915 337.788 20.3366 337.768 20.7598 337.749C21.1764 337.723 21.6322 337.703 22.127 337.69C22.6152 337.67 23.097 337.661 23.5723 337.661L32 337.661L32 339.497L17.7227 339.497L17.7227 336.616L29.3535 332.387L29.3535 332.319L17.7227 327.983L17.7227 325.122L32 325.122L32 327.055L23.4551 327.055C23.0254 327.055 22.5794 327.049 22.1172 327.036C21.6484 327.023 21.2057 327.006 20.7891 326.987C20.3659 326.961 20.0176 326.938 19.7441 326.919L19.7441 327.006L32 331.567L32 333.276ZM24.8418 308.764C25.9421 308.764 26.9447 308.904 27.8496 309.184C28.748 309.464 29.5228 309.881 30.1738 310.434C30.8184 310.981 31.3164 311.668 31.668 312.495C32.0195 313.315 32.1953 314.275 32.1953 315.376C32.1953 316.495 32.0195 317.472 31.668 318.305C31.3164 319.132 30.8151 319.819 30.1641 320.366C29.513 320.913 28.735 321.323 27.8301 321.596C26.9251 321.863 25.9225 321.997 24.8223 321.997C23.3574 321.997 22.0749 321.756 20.9746 321.274C19.8743 320.792 19.0215 320.06 18.416 319.077C17.804 318.087 17.498 316.844 17.498 315.346C17.498 313.901 17.8008 312.69 18.4062 311.713C19.0117 310.737 19.8646 310.001 20.9648 309.506C22.0586 309.012 23.3509 308.764 24.8418 308.764ZM24.8418 319.897C26.0006 319.897 27.0033 319.738 27.8496 319.419C28.6894 319.093 29.3405 318.598 29.8027 317.934C30.2585 317.264 30.4863 316.411 30.4863 315.376C30.4863 314.327 30.2585 313.471 29.8027 312.807C29.3405 312.143 28.6894 311.655 27.8496 311.342C27.0033 311.03 26.0006 310.874 24.8418 310.874C23.084 310.874 21.7103 311.232 20.7207 311.948C19.7246 312.664 19.2266 313.797 19.2266 315.346C19.2266 316.388 19.4544 317.244 19.9102 317.915C20.3594 318.585 21.0039 319.083 21.8437 319.409C22.6771 319.734 23.6764 319.897 24.8418 319.897ZM17.7227 301.713C17.7227 300.509 17.8724 299.516 18.1719 298.735C18.4648 297.947 18.9141 297.361 19.5195 296.977C20.1185 296.593 20.8802 296.401 21.8047 296.401C22.5338 296.401 23.1491 296.534 23.6504 296.801C24.1517 297.068 24.5618 297.42 24.8809 297.856C25.1999 298.286 25.4505 298.748 25.6328 299.243L32 295.249L32 297.544L26.1602 301.02L26.1602 303.647L32 303.647L32 305.649L17.7227 305.649L17.7227 301.713ZM19.4219 301.84L19.4219 303.647L24.4902 303.647L24.4902 301.704C24.4902 300.577 24.2721 299.754 23.8359 299.233C23.3932 298.712 22.7422 298.452 21.8828 298.452C20.9909 298.452 20.3594 298.728 19.9883 299.282C19.6107 299.835 19.4219 300.688 19.4219 301.84ZM32 285.073L32 293.09L17.7227 293.09L17.7227 285.073L19.4414 285.073L19.4414 291.088L23.6894 291.088L23.6894 285.434L25.3887 285.434L25.3887 291.088L30.2715 291.088L30.2715 285.073L32 285.073ZM24.1875 272.202L24.1875 268.247L25.7109 268.247L25.7109 272.202L29.7637 272.202L29.7637 273.745L25.7109 273.745L25.7109 277.71L24.1875 277.71L24.1875 273.745L20.1152 273.745L20.1152 272.202L24.1875 272.202Z" fill="white"/>
</svg>
