<?xml version="1.0" standalone="no"?>
<!DOCTYPE svg PUBLIC "-//W3C//DTD SVG 20010904//EN"
 "http://www.w3.org/TR/2001/REC-SVG-20010904/DTD/svg10.dtd">
<svg version="1.0" xmlns="http://www.w3.org/2000/svg"
 width="980.000000pt" height="556.000000pt" viewBox="0 0 980.000000 556.000000"
 preserveAspectRatio="xMidYMid meet">

<g transform="translate(0.000000,556.000000) scale(0.100000,-0.100000)"
fill="#000000" stroke="none">
<path d="M0 4270 l0 -1289 36 21 c29 17 40 19 60 9 22 -10 44 -46 44 -72 0 -5
-9 -18 -20 -29 -28 -28 -84 -27 -104 2 -15 20 -16 -24 -16 -500 0 -341 3 -522
10 -522 6 0 10 -7 10 -15 0 -8 -4 -15 -10 -15 -7 0 -10 -145 -10 -414 l0 -415
33 6 c29 4 37 0 60 -27 15 -17 27 -40 27 -51 0 -26 10 -24 97 16 42 19 82 35
90 35 7 0 23 16 35 36 23 39 51 54 105 54 28 0 43 -8 71 -37 19 -21 28 -27 19
-13 -10 13 -17 43 -17 67 0 54 31 92 85 103 22 5 52 12 67 16 23 5 33 1 58
-26 25 -27 29 -38 25 -73 -2 -23 -4 -46 -4 -50 -1 -5 -5 -6 -10 -3 -5 3 -15
-2 -22 -10 -17 -20 -93 -54 -122 -54 -27 -1 -46 -15 -76 -58 -12 -18 -39 -40
-59 -50 -21 -10 -38 -26 -40 -37 -11 -68 -48 -94 -166 -111 -104 -16 -102 -16
-183 65 -28 28 -56 51 -62 51 -6 0 -11 -16 -11 -36 0 -36 0 -37 35 -31 21 3
33 2 30 -4 -4 -5 1 -9 9 -9 8 0 17 -4 21 -9 7 -13 -50 -78 -76 -86 -18 -6 -19
-19 -19 -356 l0 -349 3779 0 3779 0 -15 31 c-13 26 -13 33 -2 40 8 5 19 9 25
9 6 0 16 6 22 13 20 23 -14 72 -94 137 -100 80 -167 140 -177 158 -6 9 5 34
34 75 53 78 100 122 162 153 26 14 71 46 100 72 28 26 70 58 92 72 22 13 56
42 75 63 43 48 86 72 124 68 32 -3 137 -46 146 -60 3 -5 19 -15 35 -24 17 -8
49 -29 73 -47 34 -24 41 -34 32 -45 -8 -10 -5 -19 15 -40 14 -16 25 -37 25
-48 0 -28 82 -139 132 -178 43 -33 58 -49 58 -60 0 -3 -50 -48 -112 -100 -184
-154 -198 -170 -198 -217 0 -22 -4 -44 -10 -47 -5 -3 -10 -10 -10 -16 0 -5
327 -9 855 -9 l855 0 0 589 0 589 -37 -4 c-51 -6 -64 5 -71 61 -4 39 -2 51 13
62 25 18 55 16 77 -4 17 -16 18 -4 18 350 0 282 -3 367 -12 371 -10 5 -10 7
-1 12 10 4 13 368 13 1770 l0 1764 -4900 0 -4900 0 0 -1290z m7835 620 c3 -5
-1 -10 -9 -10 -9 0 -16 5 -16 10 0 6 4 10 9 10 6 0 13 -4 16 -10z m48 -143 c4
3 7 -1 7 -10 0 -9 5 -17 11 -17 6 0 8 -7 5 -16 -6 -15 17 -48 27 -38 3 3 8 -3
11 -13 8 -21 56 -59 56 -43 0 6 10 4 24 -5 15 -10 34 -14 52 -10 22 5 25 4 14
-4 -12 -9 -10 -11 13 -11 24 0 27 3 21 25 -8 34 11 55 52 55 30 0 34 -3 40
-36 3 -19 2 -46 -4 -59 -13 -27 -7 -35 24 -35 13 0 28 -8 33 -19 8 -14 27 -19
98 -25 175 -14 219 -24 260 -62 14 -13 30 -21 36 -17 5 3 7 1 4 -4 -4 -6 18
-34 48 -62 l54 -51 83 -1 83 -1 -60 -9 c-85 -12 -89 -15 -68 -39 23 -27 45
-25 73 5 30 32 39 32 52 -5 7 -20 19 -32 36 -36 15 -3 32 -7 39 -9 7 -2 15 0
18 5 4 6 63 8 148 5 78 -3 150 -6 160 -6 12 0 17 -8 17 -27 0 -15 4 -22 8 -17
4 6 17 11 30 13 16 2 22 -2 22 -15 0 -15 2 -14 16 5 8 12 21 22 29 22 22 0 46
-30 40 -50 -4 -13 -1 -17 12 -16 27 2 47 -68 31 -105 -14 -32 -20 -34 -49 -19
-15 8 -19 7 -19 -5 0 -8 -5 -15 -11 -15 -5 0 -7 -4 -4 -10 3 -5 -6 -22 -20
-36 -15 -15 -23 -29 -17 -33 21 -14 33 -51 22 -70 -16 -31 -48 -36 -80 -12
-23 17 -29 18 -34 6 -3 -9 -19 -15 -37 -15 -18 0 -29 -3 -26 -7 10 -9 -65 -37
-115 -42 -5 -1 -8 -8 -8 -17 0 -8 -4 -12 -10 -9 -5 3 -10 2 -10 -4 0 -5 -13
-16 -30 -24 l-29 -15 17 25 c16 25 16 26 -3 14 -11 -6 -31 -19 -45 -29 l-24
-17 19 27 c11 15 23 28 28 28 4 0 7 4 7 8 0 4 -16 7 -35 7 -20 -1 -36 4 -39
12 -8 21 -121 14 -201 -14 -118 -40 -246 -71 -325 -78 -41 -4 -81 -12 -89 -18
-8 -7 -49 -11 -107 -10 -90 2 -94 1 -124 -27 -62 -58 -152 -44 -189 29 l-19
36 -133 -9 c-192 -12 -200 -15 -222 -75 -25 -72 -23 -98 13 -116 16 -8 37 -15
48 -15 10 0 23 -5 30 -12 7 -7 12 -8 12 -2 0 25 161 5 246 -31 20 -8 45 -15
56 -15 33 0 33 -29 -1 -64 -37 -38 -33 -45 39 -69 84 -28 94 -27 101 15 3 21
14 47 24 58 12 14 15 23 8 32 -15 19 -15 94 0 106 6 6 44 13 82 17 63 6 72 5
88 -13 11 -11 22 -37 27 -57 7 -33 6 -37 -18 -48 -15 -6 -37 -22 -49 -36 -26
-29 -40 -91 -22 -101 6 -4 9 -12 6 -17 -3 -5 3 -17 14 -26 25 -22 24 -27 -11
-65 -24 -26 -35 -32 -53 -26 -26 8 -37 22 -37 47 0 23 -26 33 -46 16 -10 -8
-48 -13 -101 -15 -78 -1 -85 0 -93 20 -9 21 -9 21 -9 -2 -1 -15 -10 -26 -27
-32 -43 -17 -59 7 -27 42 18 21 3 25 -26 6 -23 -14 -55 -3 -48 17 5 11 -3 13
-44 8 -39 -5 -53 -2 -68 12 -25 22 -17 41 21 54 21 7 28 15 24 26 -3 8 -1 15
4 15 6 0 10 7 10 15 0 8 -4 15 -10 15 -5 0 -10 5 -10 11 0 12 -41 47 -78 66
-33 18 -155 10 -217 -14 -45 -17 -50 -22 -57 -58 -6 -26 -19 -48 -39 -63 -16
-13 -36 -37 -44 -52 l-15 -29 37 -10 c48 -12 180 -28 303 -37 109 -8 133 -16
128 -47 -2 -17 -12 -23 -43 -28 -39 -7 -179 -3 -220 6 -11 2 -71 7 -133 11
-101 6 -114 5 -126 -11 -7 -9 -26 -19 -44 -21 -25 -3 -31 0 -34 19 -2 17 -11
23 -37 25 -18 2 -38 -1 -44 -7 -16 -16 -43 -13 -79 9 -42 25 -63 25 -88 0 -11
-11 -32 -20 -46 -20 -21 0 -24 -4 -19 -20 7 -22 -9 -27 -35 -10 -9 5 -19 5
-26 -1 -8 -6 -14 -4 -18 7 -8 21 1 34 25 34 10 0 19 7 19 15 0 12 -19 15 -113
15 -65 0 -117 4 -123 10 -8 8 -15 6 -24 -5 -9 -11 -31 -15 -81 -15 -38 0 -71
-5 -75 -11 -3 -6 -19 -9 -34 -5 -27 5 -28 4 -23 -33 5 -33 2 -41 -18 -54 -34
-21 -62 -28 -78 -18 -18 12 -16 88 3 110 9 10 12 22 6 30 -4 8 -6 21 -3 30 4
13 3 13 -5 2 -6 -8 -19 -11 -38 -7 -25 5 -39 -2 -91 -44 -66 -55 -81 -77 -58
-86 24 -10 17 -34 -13 -45 -17 -6 -32 -21 -39 -39 -6 -17 -18 -33 -27 -36 -27
-10 -66 5 -78 31 -14 30 -22 30 -124 5 -109 -27 -197 -38 -225 -27 l-24 8 28
23 c15 12 27 27 27 32 0 19 35 44 71 50 19 3 45 8 59 11 l25 5 -27 14 c-72 38
-25 150 55 130 14 -3 35 -17 48 -31 13 -13 34 -25 46 -25 20 0 22 4 20 51 -2
45 1 54 28 77 31 27 34 51 7 66 -14 8 -14 10 2 21 15 11 13 15 -21 32 -21 11
-44 31 -50 44 -40 77 22 176 98 156 29 -8 34 14 20 93 -12 64 -14 68 -37 65
-32 -3 -46 -17 -47 -48 -2 -27 -14 -25 -35 5 -7 10 -21 18 -31 18 -10 0 -21 3
-24 7 -4 4 -26 8 -50 9 -23 2 -62 12 -87 23 -25 11 -61 22 -81 26 -39 6 -72
34 -74 63 0 9 -5 24 -10 32 -5 9 -4 15 3 18 7 2 12 9 12 16 0 6 17 29 38 49
28 27 49 39 82 43 25 4 56 11 70 16 13 5 60 15 104 23 44 8 91 22 105 33 38
27 131 46 183 37 24 -4 57 -8 74 -10 17 -1 37 -6 44 -10 9 -5 11 -4 6 3 -10
16 3 34 17 25 18 -11 36 -12 43 -2 3 5 10 7 15 4 5 -4 9 -1 9 5 0 6 5 8 10 5
6 -4 10 -3 9 2 -1 4 -1 17 0 28 1 15 3 17 10 6 7 -11 13 -10 36 5 43 28 80 27
114 -2 21 -17 37 -23 51 -19 11 3 20 9 20 13 0 11 72 6 105 -7 19 -8 44 -9 70
-4 22 4 92 7 155 8 l115 0 -3 41 c-2 25 2 47 10 55 7 8 18 25 24 38 11 27 54
37 54 13 0 -7 3 -12 8 -10 4 2 21 10 37 18 17 8 33 19 37 25 5 6 17 4 36 -7
17 -10 46 -16 71 -15 34 1 47 -4 61 -21 22 -26 26 -27 34 -6 4 10 2 13 -7 8
-6 -4 -4 2 7 14 14 17 23 19 37 11 21 -11 43 -3 34 12 -4 5 -1 9 6 9 8 0 8 4
-1 15 -11 14 -10 14 12 6 32 -12 40 -5 27 23 -9 19 -8 19 10 -2 l20 -23 7 25
c3 14 10 26 15 26 6 0 5 -9 -1 -20 -11 -21 -4 -25 19 -11 8 5 12 15 9 23 -6
14 28 18 49 5 17 -10 83 -5 83 7 0 6 7 23 14 39 13 23 13 27 0 28 -36 3 -86
28 -79 39 9 15 56 8 50 -7 -3 -10 0 -11 13 -5 9 5 24 7 32 5 8 -3 -3 7 -25 21
-50 32 -23 34 35 4 25 -14 36 -24 27 -26 -8 -2 -17 -12 -20 -23 -7 -27 18 -24
49 6 13 13 25 24 27 23 10 -5 47 17 47 29 0 10 6 13 16 9 9 -4 13 -2 8 5 -4 6
0 15 7 20 7 4 10 11 6 16 -4 4 -17 2 -27 -5 -26 -16 -30 -15 -30 5 0 20 -28
53 -47 53 -7 0 -13 3 -13 6 0 13 72 74 80 69 6 -4 10 -1 10 6 0 8 3 9 13 0 8
-6 17 -8 20 -4z m1537 -252 c17 -20 5 -45 -20 -45 -23 0 -35 22 -26 45 7 19
30 19 46 0z m-250 -70 c15 -18 6 -45 -13 -45 -8 0 -20 7 -27 15 -10 12 -10 18
0 30 16 19 24 19 40 0z m558 -38 c-2 -16 -10 -22 -28 -22 -28 0 -39 27 -20 50
18 21 52 1 48 -28z m-504 8 c-25 -19 -34 -19 -34 0 0 10 10 15 27 15 26 0 26
-1 7 -15z m321 -39 c18 -27 11 -52 -17 -67 -42 -23 -90 45 -56 79 20 20 56 14
73 -12z m-4417 -42 c4 -27 -26 -40 -46 -20 -13 13 -13 18 -2 31 18 21 44 15
48 -11z m580 17 c21 -13 10 -46 -16 -49 -27 -4 -40 22 -22 43 14 17 20 18 38
6z m152 -22 c0 -5 11 -9 25 -9 18 0 25 -5 25 -19 0 -24 -29 -36 -37 -15 -3 9
-13 14 -24 11 -26 -7 -45 18 -29 37 12 15 40 11 40 -5z m408 -63 c-2 -15 -10
-21 -28 -21 -31 0 -40 33 -14 52 22 16 46 -1 42 -31z m437 -31 c0 -55 -65 -59
-73 -5 -5 30 22 51 51 41 15 -6 22 -17 22 -36z m-1417 1 c6 -29 -15 -43 -35
-24 -14 14 -14 20 -3 33 16 19 34 15 38 -9z m-477 -73 c3 -44 -17 -72 -53 -73
-24 0 -27 20 -10 58 18 36 61 46 63 15z m-201 -38 c0 -33 -10 -55 -25 -55 -20
0 -26 42 -9 68 18 27 34 21 34 -13z m73 -22 c-3 -7 -9 -13 -14 -13 -17 0 -22
30 -8 46 12 14 14 14 20 -3 3 -10 4 -24 2 -30z m-1049 2 c24 -18 14 -45 -18
-45 -30 0 -40 13 -31 40 7 23 23 25 49 5z m1231 -45 c17 -19 17 -21 0 -40 -10
-11 -22 -20 -26 -20 -10 0 -39 29 -39 40 0 11 29 40 39 40 4 0 16 -9 26 -20z
m-1067 -16 c4 -25 -22 -38 -37 -20 -15 18 -3 48 18 44 9 -2 17 -13 19 -24z
m173 16 c25 -14 25 -56 -1 -70 -46 -25 -88 23 -54 61 20 22 28 23 55 9z m-811
-40 c0 -5 -7 -10 -16 -10 -8 0 -12 5 -9 10 3 6 10 10 16 10 5 0 9 -4 9 -10z
m1940 -25 c17 -20 5 -62 -20 -70 -39 -12 -68 29 -44 63 18 25 46 28 64 7z
m327 -12 c6 -16 -14 -43 -33 -43 -8 0 -14 7 -14 15 0 8 -9 15 -20 15 -20 0
-26 11 -14 23 12 12 76 4 81 -10z m-1216 -14 c11 -5 32 -11 47 -12 17 -2 28
-9 32 -23 3 -12 21 -34 40 -50 47 -38 50 -43 50 -83 0 -42 -25 -74 -49 -61
-10 5 -36 4 -65 -2 -45 -9 -50 -8 -75 16 -15 14 -34 26 -42 26 -9 0 -24 9 -33
19 -10 11 -31 25 -47 31 -16 7 -29 18 -29 24 1 17 26 46 39 46 7 0 30 18 52
40 43 43 50 46 80 29z m-254 -26 c-3 -5 6 -9 19 -9 40 -3 54 -12 54 -35 0 -51
-54 -74 -98 -43 -26 18 -28 50 -5 76 16 17 39 26 30 11z m-728 -54 c6 -16 17
-29 27 -29 13 0 14 3 4 15 -7 8 -8 15 -2 15 5 0 15 -7 22 -15 18 -22 80 -35
120 -26 20 4 47 4 60 -1 14 -5 53 -9 88 -9 53 0 66 4 87 26 14 13 38 27 53 31
15 3 36 7 47 9 10 2 45 2 76 -2 46 -4 59 -10 69 -29 17 -31 16 -70 -5 -126
-20 -54 -44 -62 -86 -29 -13 10 -39 22 -58 26 -18 4 -49 18 -68 31 -20 13 -50
24 -67 25 -17 1 -40 2 -51 3 -11 0 -28 -2 -38 -7 -9 -4 -36 -3 -58 3 -28 8
-44 8 -48 1 -4 -5 -28 -19 -55 -31 -125 -53 -296 -63 -296 -18 0 7 18 30 40
50 35 33 39 42 33 69 -8 40 12 57 61 51 28 -3 37 -10 45 -33z m1752 28 c21
-16 36 -46 42 -84 5 -33 -6 -53 -18 -33 -4 6 -14 5 -28 -4 -12 -7 -39 -16 -60
-19 -77 -12 -120 71 -67 128 19 20 33 25 69 25 25 0 53 -6 62 -13z m357 -77
c7 -11 19 -20 26 -20 11 0 15 -12 14 -41 0 -23 -4 -36 -8 -29 -5 9 -11 8 -21
-3 -14 -13 -21 -15 -74 -18 -32 -2 -65 27 -65 57 0 20 8 26 44 35 25 6 47 17
50 25 7 20 19 17 34 -6z m-301 -135 c19 -8 45 -15 56 -15 38 0 88 -23 84 -40
-4 -19 29 -49 62 -56 144 -29 186 -59 178 -129 -3 -22 -9 -53 -13 -69 -5 -23
-3 -32 12 -43 12 -9 15 -16 8 -21 -5 -4 -16 -20 -22 -37 -14 -33 -68 -75 -98
-75 -19 -1 -19 -1 0 -12 11 -6 29 -21 40 -33 13 -14 49 -28 96 -39 108 -26
112 -27 105 -34 -4 -4 -10 -7 -13 -8 -26 -2 -112 -41 -112 -51 0 -16 -8 -20
-53 -28 -33 -6 -39 -5 -43 13 -5 17 -10 19 -46 10 -22 -5 -49 -6 -59 -3 -12 4
-21 -1 -29 -14 -15 -29 -79 -40 -97 -16 -18 26 -16 42 8 66 15 15 30 20 50 17
24 -4 29 -1 29 16 0 31 36 85 69 104 l29 16 -24 38 c-13 21 -24 50 -24 65 0
16 -5 35 -10 43 -7 11 -10 12 -10 2 0 -22 -28 -44 -68 -53 -54 -13 -58 -12
-94 20 -18 16 -51 33 -73 39 -43 11 -76 12 -70 3 7 -12 -22 -40 -41 -40 -10 1
-36 -2 -56 -5 -27 -4 -41 -1 -53 11 -9 9 -33 18 -53 20 -20 2 -39 7 -42 12 -3
4 -13 10 -22 14 -10 3 -18 17 -18 29 0 13 -7 44 -17 70 -14 39 -14 51 -3 77
22 54 88 75 140 46 23 -13 27 -11 60 20 27 26 46 35 84 39 31 3 57 13 70 25
24 25 35 26 83 6z m-2216 -36 c25 -48 -28 -91 -65 -53 -18 17 -21 34 -6 34 5
0 6 7 3 17 -4 11 -3 14 5 9 7 -4 12 -2 12 3 0 20 39 11 51 -10z m1029 1 c30
-30 25 -67 -14 -106 -37 -37 -69 -43 -98 -17 -27 25 -22 67 13 108 36 40 69
45 99 15z m-1608 -117 c22 -20 68 -26 68 -9 0 6 5 4 10 -4 9 -13 10 -13 10 0
0 12 16 16 76 17 109 3 146 -24 87 -62 -28 -19 -143 -31 -143 -16 0 4 -16 12
-35 18 -26 8 -37 8 -44 -1 -6 -8 -36 -12 -77 -12 -59 1 -68 4 -83 26 -13 20
-13 23 -1 15 13 -7 13 -6 2 7 -11 14 -9 18 15 26 44 16 94 14 115 -5z m-2050
-35 c-9 -9 -15 -9 -24 0 -10 10 -10 15 2 22 20 12 38 -6 22 -22z m1329 -29 c8
-15 8 -28 1 -45 -8 -17 -7 -25 4 -34 15 -13 19 -48 6 -66 -12 -17 -42 -25 -62
-14 -27 14 -32 40 -14 68 15 23 15 26 0 34 -16 9 -21 34 -10 62 9 24 61 20 75
-5z m317 -10 c21 -34 -7 -66 -64 -75 -62 -9 -99 4 -99 35 0 20 9 27 50 42 68
24 97 23 113 -2z m-838 3 c0 -13 -12 -22 -22 -16 -10 6 -1 24 13 24 5 0 9 -4
9 -8z m-52 -14 c-6 -18 -28 -21 -28 -4 0 9 7 16 16 16 9 0 14 -5 12 -12z
m3586 -17 c3 -5 22 -12 41 -15 28 -6 35 -12 35 -29 0 -22 -17 -47 -31 -47 -4
0 -11 9 -14 20 -8 25 -23 25 -49 1 -12 -10 -33 -21 -48 -25 -24 -5 -28 -3 -34
19 -9 35 -1 49 38 68 38 19 54 21 62 8z m-2420 -17 c19 -18 21 -55 4 -72 -7
-7 -24 -12 -38 -12 -14 0 -31 5 -38 12 -28 28 -2 88 38 88 10 0 26 -7 34 -16z
m-1719 -4 c4 -6 1 -18 -6 -26 -11 -13 -14 -13 -27 0 -8 8 -11 19 -8 25 9 14
33 14 41 1z m3710 -16 c10 -4 23 -21 30 -38 34 -79 -84 -143 -124 -67 -34 63
27 130 94 105z m-721 -33 c19 -20 19 -22 3 -56 -9 -19 -20 -35 -24 -36 -5 0
-55 -1 -113 -3 -113 -2 -151 8 -171 45 -19 37 17 61 103 70 109 11 178 4 202
-20z m-3004 -25 c0 -34 -43 -50 -54 -20 -8 21 11 44 35 44 13 0 19 -7 19 -24z
m2498 -13 c33 -46 -2 -123 -57 -123 -41 0 -83 44 -71 75 5 13 7 25 4 28 -3 3
7 15 23 27 32 25 79 21 101 -7z m-1644 -39 c8 -21 -11 -44 -36 -44 -21 0 -33
22 -24 45 7 20 52 19 60 -1z m7334 0 c44 -31 17 -104 -39 -104 -35 0 -59 24
-59 57 0 54 52 79 98 47z m-7793 -27 c45 -70 17 -137 -59 -137 -51 0 -74 21
-83 73 -6 40 16 67 65 78 49 12 61 9 77 -14z m2883 -33 c22 -25 48 -57 57 -70
14 -22 14 -26 -3 -44 -16 -17 -36 -21 -110 -25 -83 -5 -93 -4 -112 15 -18 18
-21 31 -18 90 1 38 5 67 9 64 4 -2 18 0 31 5 12 6 41 10 64 10 36 1 45 -4 82
-45z m-3378 14 c24 -8 40 -19 40 -28 0 -25 -53 -50 -115 -54 -27 -1 -28 36 -2
69 24 29 24 29 77 13z m3016 -84 c30 -29 27 -67 -8 -97 -36 -31 -96 -4 -113
50 -4 17 1 29 19 48 32 32 70 32 102 -1z m719 -43 c36 -34 187 -92 243 -94 22
-1 38 -5 36 -9 -3 -4 2 -19 11 -32 31 -47 -15 -104 -74 -93 -22 5 -33 0 -50
-19 -25 -29 -54 -31 -81 -4 -24 24 -25 38 -3 69 16 23 15 25 -12 49 -26 22
-34 23 -91 17 -75 -8 -100 3 -120 52 -19 44 -10 71 29 89 40 17 74 10 112 -25z
m467 22 c17 -11 32 -29 35 -45 6 -33 14 -34 50 -10 20 12 48 17 103 17 68 0
79 -3 121 -32 26 -18 56 -48 67 -67 20 -34 32 -39 111 -48 21 -3 41 -36 23
-39 -4 -1 -22 -3 -41 -5 -19 -2 -44 -13 -55 -23 -12 -11 -46 -31 -76 -44 l-55
-26 150 4 c83 2 153 4 158 5 4 0 7 13 7 29 0 23 -5 30 -22 33 -15 2 -23 10
-23 23 0 29 39 27 43 -2 2 -16 10 -23 26 -23 12 0 28 -6 35 -12 11 -10 13 -10
7 0 -4 7 -1 12 8 12 8 0 27 11 43 24 45 37 67 40 99 13 27 -24 28 -26 15 -65
-8 -22 -11 -47 -8 -55 6 -17 -21 -33 -71 -41 -26 -5 -38 -1 -56 17 -20 20 -25
21 -33 8 -5 -8 -22 -15 -38 -16 -16 0 -30 -5 -32 -11 -2 -6 7 -9 24 -7 34 5
69 -18 60 -40 -8 -21 -90 -33 -123 -18 -17 7 -31 7 -47 0 -25 -11 -52 -47 -43
-56 8 -9 292 -5 476 7 91 5 205 10 254 10 49 0 105 5 123 12 28 10 36 10 50
-5 16 -15 14 -17 -20 -32 -42 -17 -61 -19 -52 -5 8 13 -114 13 -305 0 -80 -5
-221 -14 -315 -20 -209 -12 -244 -16 -320 -36 -33 -8 -91 -23 -130 -33 -38 -9
-64 -19 -56 -22 9 -3 11 -10 7 -18 -6 -9 -11 -9 -21 -1 -9 7 -23 9 -37 4 -13
-4 -25 -7 -28 -7 -3 1 -48 -5 -100 -13 -141 -21 -170 -12 -36 11 25 4 35 10
29 16 -7 7 -60 6 -154 0 -79 -6 -176 -13 -216 -16 -49 -3 -101 -16 -165 -41
-51 -19 -118 -42 -148 -51 -30 -8 -59 -18 -65 -22 -17 -13 -45 -21 -45 -13 0
5 16 14 35 21 l35 12 -22 19 c-18 14 -25 15 -33 5 -5 -7 -23 -20 -40 -30 -16
-9 -23 -11 -15 -4 8 8 22 23 30 33 14 18 13 19 -5 12 -12 -4 -16 -4 -10 2 13
11 86 32 112 32 11 0 40 16 64 35 38 30 48 33 85 28 45 -6 176 12 211 29 17 8
26 8 38 -2 10 -9 19 -9 28 -2 6 6 23 11 37 11 81 4 106 7 118 15 7 4 19 3 27
-4 11 -9 21 -8 46 4 18 9 42 13 55 10 13 -3 32 -3 41 2 20 9 21 9 178 23 240
22 225 18 225 57 0 26 -4 34 -17 34 -31 0 -177 -28 -207 -39 -23 -9 -33 -8
-52 4 -27 18 -28 19 -14 46 6 11 21 19 36 19 14 0 23 4 20 9 -3 4 -45 11 -93
15 -92 7 -163 24 -163 37 0 16 39 29 87 30 26 1 59 4 73 8 23 7 22 9 -19 20
-52 15 -100 48 -111 76 -5 12 -2 31 6 48 14 26 14 27 -11 27 -35 0 -75 42 -75
78 0 28 20 54 50 65 24 9 30 8 62 -10z m-3037 -46 l30 -12 -50 -11 c-27 -7
-84 -13 -126 -13 -62 -1 -79 -5 -94 -21 -33 -36 -105 -15 -105 31 0 42 21 47
172 42 79 -2 157 -10 173 -16z m6450 -8 c11 -32 -33 -72 -68 -64 -33 9 -36 36
-7 65 27 27 67 26 75 -1z m242 -2 c15 -13 49 -31 74 -40 59 -22 84 -41 75 -56
-8 -12 -73 -6 -89 9 -4 4 -33 5 -63 3 -74 -6 -106 14 -102 62 1 18 6 32 10 29
4 -3 16 0 25 5 27 15 39 13 70 -12z m-7343 -16 c38 -41 -5 -102 -54 -78 -34
17 -39 60 -8 81 29 21 41 20 62 -3z m1676 -31 c0 -11 -5 -20 -12 -20 -6 0 -2
-10 10 -22 51 -56 52 -130 1 -172 -33 -28 -84 -34 -122 -15 -65 33 -77 115
-26 174 l31 35 -26 0 c-24 0 -35 18 -19 33 3 4 42 7 85 7 71 0 78 -2 78 -20z
m618 4 c41 -29 23 -84 -28 -84 -32 0 -50 17 -50 46 0 20 32 54 50 54 3 0 16
-7 28 -16z m4912 -4 c0 -5 -7 -10 -16 -10 -8 0 -12 5 -9 10 3 6 10 10 16 10 5
0 9 -4 9 -10z m-575 -20 c8 -24 -1 -40 -21 -40 -8 0 -14 10 -15 23 0 21 -1 21
-9 2 -8 -18 -9 -17 -9 8 -1 22 3 27 23 27 16 0 27 -7 31 -20z m-761 -25 c18
-19 12 -39 -19 -59 -15 -10 -25 -27 -27 -48 -2 -25 -9 -33 -30 -39 -15 -4 -36
-2 -50 5 -13 7 -29 11 -36 8 -21 -7 -13 10 18 39 17 16 41 29 55 29 19 0 25 5
25 22 0 21 26 58 41 58 4 0 14 -7 23 -15z m-490 -24 c10 -15 -31 -43 -53 -36
-21 6 -28 25 -14 38 9 10 61 9 67 -2z m-4830 -7 c20 -8 21 -38 1 -54 -29 -24
-60 21 -33 48 14 14 12 14 32 6z m6419 -21 c9 -9 -12 -33 -29 -33 -8 0 -14 9
-14 20 0 19 28 28 43 13z m-6233 -19 c0 -9 -5 -14 -12 -12 -18 6 -21 28 -4 28
9 0 16 -7 16 -16z m315 -25 c6 -4 36 -1 67 7 68 18 138 5 138 -24 -1 -19 -39
-39 -172 -88 -102 -38 -132 -53 -107 -54 23 0 158 -44 194 -62 17 -9 107 -26
200 -37 94 -12 188 -25 210 -30 l40 -7 -50 -6 c-27 -3 -81 -4 -120 -3 -38 2
-77 -1 -85 -5 -8 -5 -15 -24 -16 -44 -2 -35 -2 -36 36 -36 21 0 42 5 45 10 3
6 18 10 33 10 15 0 45 7 67 15 22 8 47 14 55 14 43 1 -69 -47 -152 -64 -31 -6
-38 -25 -10 -25 25 0 65 -44 60 -66 -1 -9 -14 -19 -27 -21 -14 -2 -27 -6 -30
-9 -3 -3 10 -3 29 0 35 5 60 28 60 54 0 7 5 10 10 7 6 -4 42 24 80 60 67 65
79 94 41 96 -11 1 -10 3 4 6 11 3 28 12 38 21 14 13 23 13 57 3 30 -9 37 -15
30 -24 -44 -52 -62 -67 -78 -67 -11 0 -31 -15 -45 -32 -13 -18 -66 -76 -118
-128 -81 -82 -93 -99 -92 -127 1 -18 -3 -31 -7 -28 -5 3 -11 1 -15 -5 -3 -5
-11 -10 -16 -10 -6 0 -8 4 -5 9 3 4 -3 16 -14 26 -11 10 -20 13 -20 7 0 -8 -7
-9 -25 -2 -16 6 -35 5 -55 -1 -17 -6 -41 -8 -54 -5 -18 4 -25 1 -29 -14 -4
-15 -14 -20 -41 -20 -41 0 -44 -6 -16 -30 13 -11 17 -24 13 -39 l-6 -23 -13
23 c-10 19 -13 20 -14 7 0 -13 -8 -18 -31 -18 -28 0 -30 -2 -18 -17 13 -15 12
-15 -8 -2 -26 16 -29 25 -10 33 6 3 -4 3 -23 0 -93 -14 -163 -15 -172 -2 -7
10 -10 9 -19 -4 -13 -24 -25 -23 -32 2 -4 16 -11 20 -31 16 -18 -3 -26 0 -26
10 0 8 5 12 10 9 6 -3 10 -2 10 4 0 11 -61 33 -82 30 -23 -4 -48 13 -48 32 0
21 -16 26 -23 7 -3 -8 -6 -5 -6 6 -1 16 -7 18 -38 13 -117 -19 -113 -20 -58 8
28 13 42 25 33 25 -10 0 -18 7 -18 15 0 9 -12 18 -30 22 -16 3 -30 11 -30 18
0 19 -34 45 -75 56 -34 10 -36 11 -18 24 10 8 14 15 8 15 -5 0 -3 5 5 10 11 8
8 9 -13 4 -31 -7 -57 9 -57 36 0 29 22 38 95 41 95 2 134 15 141 44 8 31 22
42 59 48 40 6 103 37 109 53 4 9 -4 11 -29 7 -31 -5 -35 -3 -41 22 -6 24 -2
33 27 57 52 44 79 55 140 56 74 2 105 14 113 47 11 42 75 62 111 34z m2065
-35 c0 -17 7 -28 20 -31 11 -3 20 -12 20 -19 0 -19 -36 -54 -57 -54 -36 0 -70
58 -44 74 5 3 7 15 4 26 -3 11 0 27 7 35 18 21 50 1 50 -31z m3694 10 c-2 -18
4 -27 18 -33 19 -7 19 -8 4 -14 -28 -11 -8 -27 24 -20 50 10 82 -35 41 -57
-14 -7 -27 -7 -44 1 -19 9 -31 7 -55 -5 -42 -22 -62 -20 -176 14 -56 17 -122
30 -152 30 -52 0 -53 0 -52 31 1 17 8 33 16 37 8 3 54 -2 101 -11 153 -29 181
-30 202 -11 10 9 19 25 19 34 0 22 9 30 35 30 18 0 22 -5 19 -26z m874 14 c28
-28 6 -68 -34 -60 -29 5 -34 45 -6 61 22 13 26 13 40 -1z m-2880 -31 c11 -22
11 -31 1 -43 -19 -23 -3 -29 79 -28 66 0 84 4 123 27 25 15 53 27 61 27 8 0
27 11 42 25 32 30 42 30 110 8 79 -27 85 -49 20 -69 -34 -11 -5 -13 206 -14
320 -2 309 -1 303 -17 -3 -7 6 -18 21 -24 33 -15 33 -21 -1 -36 -36 -17 -40
-16 -70 7 -42 33 -125 24 -115 -12 5 -22 -12 -38 -40 -38 -25 0 -23 36 4 54
19 14 -5 15 -248 10 -148 -2 -278 -5 -289 -5 -11 0 -49 2 -85 4 -36 2 -91 -1
-124 -6 -40 -7 -64 -7 -76 0 -10 7 -33 8 -59 3 -35 -6 -42 -5 -39 8 2 9 19 20
38 25 49 12 62 25 50 47 -14 27 -12 46 6 65 25 24 66 15 82 -18z m-5444 10
c12 -9 17 -23 14 -47 -3 -30 -7 -35 -31 -38 -39 -5 -57 13 -52 52 2 17 4 34 4
39 1 12 46 8 65 -6z m5234 -3 c41 -28 20 -84 -32 -84 -41 0 -53 59 -18 88 20
15 23 15 50 -4z m857 -3 c3 -6 -4 -15 -15 -21 -16 -8 -20 -8 -18 2 2 7 8 16
13 20 13 10 13 10 20 -1z m-107 -13 c20 -20 14 -30 -15 -26 -32 4 -46 38 -16
38 11 0 24 -5 31 -12z m856 -14 c20 -8 21 -38 1 -54 -30 -25 -70 15 -45 45 14
17 21 18 44 9z m124 -15 c2 -5 13 -9 25 -9 12 0 29 -5 37 -10 10 -7 -6 -10
-54 -10 -58 0 -67 2 -62 16 3 9 6 20 6 25 0 12 43 1 48 -12z m-6420 -5 c39
-27 19 -94 -29 -94 -23 0 -59 34 -59 55 0 18 35 55 53 55 7 0 23 -7 35 -16z
m7520 -3 c8 -4 12 -17 10 -27 -2 -12 3 -19 12 -19 8 0 21 -4 28 -9 20 -12 -5
-36 -39 -36 -33 0 -46 15 -29 35 9 10 7 15 -9 20 -12 3 -21 12 -21 19 0 25 23
33 48 17z m593 -7 c18 -22 0 -48 -38 -52 -38 -4 -59 18 -43 47 13 25 61 28 81
5z m-5947 0 c26 -10 20 -61 -9 -80 -48 -31 -101 15 -70 62 15 24 46 31 79 18z
m587 -34 c30 -17 24 -57 -11 -75 -16 -8 -38 -15 -48 -15 -11 0 -22 -9 -25 -20
-6 -24 -52 -37 -72 -20 -17 14 -20 56 -4 65 5 4 15 18 20 32 7 20 15 24 33 21
13 -3 35 1 47 8 29 16 35 17 60 4z m4329 -8 c0 -9 -47 -8 -57 1 -3 4 8 7 25 7
18 0 32 -4 32 -8z m-3456 -34 c21 -30 4 -60 -32 -56 -34 4 -44 45 -16 65 24
18 30 17 48 -9z m1071 13 c8 -13 -31 -33 -57 -29 -27 4 -35 25 -11 31 32 8 62
7 68 -2z m1340 -4 c11 -8 46 -19 79 -26 48 -11 63 -11 83 0 19 10 28 10 41 1
30 -22 65 -33 116 -38 28 -2 67 -7 86 -10 19 -3 49 -6 65 -8 17 -2 32 -4 35
-5 3 -1 19 -4 35 -6 312 -40 331 -43 319 -55 -5 -5 -30 -4 -59 1 -27 5 -108
17 -180 25 -71 9 -141 18 -155 20 -14 2 -55 7 -92 11 -56 5 -68 3 -68 -9 0 -8
-12 -20 -26 -27 -22 -9 -30 -8 -55 10 -16 11 -29 24 -29 28 0 13 -76 32 -151
38 -81 7 -110 22 -90 47 16 19 21 20 46 3z m-5341 -18 c9 -14 12 -29 7 -43
-10 -27 -56 -44 -79 -30 -21 13 -28 60 -11 80 18 21 65 17 83 -7z m6777 -1
c21 -39 -40 -65 -64 -27 -15 24 -1 49 27 49 16 0 30 -8 37 -22z m-2186 -13 c0
-13 -8 -21 -22 -23 -17 -3 -23 2 -23 16 0 10 3 22 7 26 13 13 38 1 38 -19z
m1622 19 c-3 -3 -12 -4 -19 -1 -8 3 -5 6 6 6 11 1 17 -2 13 -5z m-3557 -43 c0
-21 -22 -33 -45 -25 -18 7 -20 35 -3 52 15 15 48 -3 48 -27z m-2602 4 c-3 -3
-9 2 -12 12 -6 14 -5 15 5 6 7 -7 10 -15 7 -18z m1630 -21 c4 -25 -24 -40 -44
-23 -10 8 -11 16 -3 31 13 24 43 19 47 -8z m2992 -36 c0 -31 -28 -32 -59 -2
-22 20 -27 31 -20 40 15 18 79 -13 79 -38z m-136 34 c3 -5 -11 -9 -30 -10 -20
-1 -32 3 -29 8 8 12 52 13 59 2z m422 -27 c4 -9 19 -15 38 -15 17 0 74 -9 126
-21 52 -11 109 -17 127 -14 18 3 40 1 50 -4 10 -6 54 -17 98 -25 69 -12 83
-12 102 0 29 18 34 18 31 -3 -2 -14 6 -19 42 -24 25 -3 36 -7 25 -8 -45 -6 83
-44 217 -66 31 -5 37 -3 32 10 -6 16 4 19 30 9 21 -8 20 -22 -1 -26 -17 -3 24
-12 327 -70 165 -32 111 -34 -71 -3 -85 15 -167 29 -184 31 -16 2 -57 10 -90
18 -65 16 -83 15 -38 -2 77 -29 247 -101 238 -102 -6 0 -42 12 -80 26 -39 15
-160 58 -270 96 -172 60 -206 68 -245 63 -31 -4 -41 -3 -30 4 24 16 -42 38
-108 35 -33 -1 -65 3 -77 11 -28 17 -270 58 -301 51 -34 -9 -69 11 -53 30 15
19 58 18 65 -1z m-3472 -11 c20 -19 20 -25 2 -49 -12 -17 -18 -18 -40 -7 -28
12 -34 40 -14 60 16 16 33 15 52 -4z m834 -17 c4 -20 -25 -34 -40 -19 -15 15
-1 44 19 40 10 -2 19 -11 21 -21z m4402 8 c10 -12 10 -18 0 -30 -7 -8 -18 -15
-25 -15 -19 0 -38 28 -31 45 7 19 40 19 56 0z m-222 -11 c7 -2 11 -8 8 -13 -6
-9 -76 10 -76 22 0 7 32 3 68 -9z m-203 -18 c17 0 31 -5 32 -11 2 -10 -50 -10
-96 1 -20 4 -22 7 -10 15 7 5 21 6 29 3 8 -3 29 -7 45 -8z m-1915 -6 c0 -5 -6
-10 -14 -10 -7 0 -19 -7 -26 -15 -7 -8 -17 -12 -22 -9 -13 9 22 44 44 44 10 0
18 -4 18 -10z m2033 -1 c20 -5 37 -14 37 -20 0 -6 -15 -7 -37 -4 -53 9 -63 13
-63 25 0 13 15 13 63 -1z m-7495 -11 c7 -7 12 -18 12 -25 0 -17 -35 -34 -54
-27 -16 6 -22 45 -9 57 10 11 38 8 51 -5z m2336 -4 c21 -20 20 -31 -2 -43 -35
-19 -68 19 -40 47 16 16 23 15 42 -4z m2331 -4 c0 -7 -6 -15 -12 -17 -8 -3
-13 4 -13 17 0 13 5 20 13 18 6 -3 12 -11 12 -18z m-4507 -18 c4 -28 -24 -40
-45 -19 -21 21 -9 49 19 45 15 -2 24 -11 26 -26z m6597 -2 c3 -5 17 -10 31
-10 13 0 24 -4 24 -9 0 -5 8 -12 18 -14 11 -3 7 -5 -10 -6 -15 0 -30 4 -33 9
-3 6 -22 10 -41 10 -32 0 -42 8 -27 23 10 10 31 8 38 -3z m469 1 c11 -17 66
-18 77 -2 8 12 12 13 15 4 3 -7 14 -13 25 -13 10 0 19 -4 19 -10 0 -9 -119
-17 -165 -11 -11 2 -62 4 -113 5 -51 2 -97 7 -103 13 -6 6 25 9 90 7 54 -1
105 2 112 7 18 11 36 11 43 0z m396 -1 c0 -5 -6 -10 -14 -10 -8 0 -18 5 -21
10 -3 6 3 10 14 10 12 0 21 -4 21 -10z m40 -11 c0 -5 -4 -9 -10 -9 -5 0 -10 7
-10 16 0 8 5 12 10 9 6 -3 10 -10 10 -16z m121 5 c18 -16 54 -22 310 -48 118
-13 323 -47 369 -62 12 -4 10 -10 -10 -26 l-24 -20 -17 21 c-25 30 -124 49
-454 86 -158 18 -173 18 -191 -4 l-18 -20 -10 22 c-6 11 -22 24 -34 27 -46 10
-23 28 52 39 5 0 17 -6 27 -15z m-7158 -6 c7 -21 -4 -38 -23 -38 -23 0 -34 16
-26 35 7 18 43 20 49 3z m6252 2 c-3 -5 -13 -10 -21 -10 -8 0 -14 5 -14 10 0
6 9 10 21 10 11 0 17 -4 14 -10z m85 0 c0 -5 -12 -10 -27 -9 l-28 1 25 8 c14
4 26 8 28 9 1 1 2 -3 2 -9z m-2575 -10 c3 -5 2 -10 -4 -10 -5 0 -13 5 -16 10
-3 6 -2 10 4 10 5 0 13 -4 16 -10z m3023 -1 c-2 -6 -8 -10 -13 -10 -5 0 -11 4
-13 10 -2 6 4 11 13 11 9 0 15 -5 13 -11z m56 2 c3 -5 0 -11 -8 -14 -15 -6
-26 1 -26 15 0 11 27 10 34 -1z m66 0 c0 -12 -28 -22 -34 -12 -3 5 -3 11 1 15
9 9 33 7 33 -3z m-4731 -15 c15 -18 3 -46 -20 -46 -22 0 -34 22 -25 45 7 19
30 19 45 1z m1661 10 c0 -2 -9 -6 -20 -9 -11 -3 -20 -1 -20 4 0 5 9 9 20 9 11
0 20 -2 20 -4z m85 -6 c-3 -5 -13 -10 -21 -10 -8 0 -12 5 -9 10 3 6 13 10 21
10 8 0 12 -4 9 -10z m224 0 c24 0 41 -3 37 -7 -4 -4 -24 -6 -45 -4 -22 1 -42
-2 -46 -8 -3 -6 -11 -11 -16 -11 -6 0 -7 5 -4 10 5 9 -80 16 -122 11 -7 -1
-13 3 -13 10 0 9 22 10 83 6 45 -4 102 -7 126 -7z m511 -33 c0 -8 10 -17 22
-20 12 -4 20 -9 17 -12 -3 -3 -22 1 -41 9 -27 12 -43 13 -78 4 -34 -9 -45 -9
-48 1 -2 7 -16 17 -31 23 -24 9 -24 11 -7 17 11 4 36 5 57 1 23 -4 46 -2 60 5
18 10 25 10 36 0 7 -8 13 -20 13 -28z m2305 33 c-3 -5 -10 -10 -16 -10 -5 0
-9 5 -9 10 0 6 7 10 16 10 8 0 12 -4 9 -10z m-2745 -4 c0 -3 -4 -8 -10 -11 -5
-3 -10 -1 -10 4 0 6 5 11 10 11 6 0 10 -2 10 -4z m2800 -6 c0 -5 -2 -10 -4
-10 -3 0 -8 5 -11 10 -3 6 -1 10 4 10 6 0 11 -4 11 -10z m-2667 -7 c-7 -2 -21
-2 -30 0 -10 3 -4 5 12 5 17 0 24 -2 18 -5z m44 1 c-3 -3 -12 -4 -19 -1 -8 3
-5 6 6 6 11 1 17 -2 13 -5z m43 2 c0 -11 -19 -15 -25 -6 -3 5 1 10 9 10 9 0
16 -2 16 -4z m-4620 -31 c17 -20 5 -45 -20 -45 -23 0 -35 22 -26 45 7 19 30
19 46 0z m235 -5 c0 -22 -29 -18 -33 3 -3 14 1 18 15 15 10 -2 18 -10 18 -18z
m2500 10 c3 -5 -1 -10 -9 -10 -9 0 -16 5 -16 10 0 6 4 10 9 10 6 0 13 -4 16
-10z m2270 0 c3 -6 -1 -7 -9 -4 -18 7 -21 14 -7 14 6 0 13 -4 16 -10z m-2318
-16 c8 -21 -13 -42 -28 -27 -13 13 -5 43 11 43 6 0 13 -7 17 -16z m4433 6 c0
-5 -5 -10 -11 -10 -5 0 -7 5 -4 10 3 6 8 10 11 10 2 0 4 -4 4 -10z m-3637 -7
c-7 -2 -19 -2 -25 0 -7 3 -2 5 12 5 14 0 19 -2 13 -5z m174 1 c-3 -3 -12 -4
-19 -1 -8 3 -5 6 6 6 11 1 17 -2 13 -5z m1329 -9 c-4 -10 2 -19 17 -25 12 -5
17 -9 10 -9 -17 -1 -63 21 -63 30 0 7 17 17 34 18 4 1 5 -6 2 -14z m184 11 c0
-2 -7 -9 -15 -16 -13 -11 -14 -10 -9 4 5 14 24 23 24 12z m920 -5 c0 -15 -16
-22 -34 -15 -25 9 -19 24 9 24 14 0 25 -4 25 -9z m-6267 -7 c11 -11 -5 -34
-23 -34 -22 0 -34 15 -25 30 7 11 38 14 48 4z m2317 -9 c14 -17 5 -35 -19 -35
-22 0 -45 25 -36 40 9 15 41 12 55 -5z m341 0 c-1 -15 -24 -12 -29 3 -3 9 2
13 12 10 10 -1 17 -7 17 -13z m956 9 c-3 -3 -12 -4 -19 -1 -8 3 -5 6 6 6 11 1
17 -2 13 -5z m253 -14 c0 -5 -5 -10 -11 -10 -5 0 -7 5 -4 10 3 6 8 10 11 10 2
0 4 -4 4 -10z m994 -4 c-10 -8 -21 -12 -24 -10 -5 6 21 24 34 24 6 0 1 -6 -10
-14z m250 5 c4 -5 -3 -7 -14 -4 -23 6 -26 13 -6 13 8 0 17 -4 20 -9z m963 -16
c15 -33 -4 -46 -26 -18 -9 11 -23 18 -31 16 -8 -2 -4 3 10 11 33 20 33 20 47
-9z m760 19 c-3 -3 -12 -4 -19 -1 -8 3 -5 6 6 6 11 1 17 -2 13 -5z m-1342 -14
c-3 -5 -11 -10 -16 -10 -6 0 -7 5 -4 10 3 6 11 10 16 10 6 0 7 -4 4 -10z
m-5795 -15 c-46 -26 -51 -28 -62 -17 -18 18 2 32 45 32 42 0 42 0 17 -15z
m3255 0 c-22 -7 -101 -30 -175 -49 -74 -20 -138 -42 -142 -49 -5 -9 -12 -6
-23 11 -9 12 -21 20 -26 17 -10 -7 -2 -54 12 -69 14 -15 11 -23 -11 -29 -13
-3 -21 1 -25 13 -3 9 -14 25 -25 35 -16 15 -22 16 -35 5 -12 -10 -19 -10 -27
-2 -14 14 -15 13 39 40 24 12 49 19 57 16 7 -3 23 7 35 22 12 15 25 24 29 19
4 -4 1 -10 -5 -12 -19 -7 -15 -33 5 -33 9 0 87 18 172 39 157 40 218 51 145
26z m522 9 c-3 -3 -12 -4 -19 -1 -8 3 -5 6 6 6 11 1 17 -2 13 -5z m103 -4 c0
-5 -10 -10 -22 -9 -22 0 -22 1 -3 9 11 5 21 9 23 9 1 1 2 -3 2 -9z m230 -5
c-7 -8 -19 -15 -26 -15 -17 0 -18 -12 -2 -28 10 -9 9 -16 -3 -27 -20 -21 -72
-4 -63 20 3 8 10 15 14 15 5 0 15 6 22 13 30 31 81 50 58 22z m3310 -6 c25
-14 -9 -10 -50 7 l-35 14 35 -6 c19 -4 42 -10 50 -15z m-7200 -3 c0 -8 -5 -18
-11 -21 -6 -4 -8 -13 -5 -21 4 -9 -2 -14 -16 -14 -12 0 -18 3 -15 7 4 3 2 12
-4 19 -6 8 -9 21 -5 29 7 19 56 20 56 1z m3517 8 c-3 -3 -12 -4 -19 -1 -8 3
-5 6 6 6 11 1 17 -2 13 -5z m1378 -4 c8 -14 -13 -50 -30 -50 -7 0 -21 8 -30
17 -16 16 -16 17 1 30 21 15 50 17 59 3z m460 -9 c0 -8 -6 -15 -13 -17 -7 -1
-8 0 -2 3 16 7 12 21 -7 27 -14 4 -14 4 2 3 11 -1 20 -9 20 -16z m725 15 c0
-2 -7 -7 -16 -10 -8 -3 -12 -2 -9 4 6 10 25 14 25 6z m-2603 -12 c-3 -3 -12
-4 -19 -1 -8 3 -5 6 6 6 11 1 17 -2 13 -5z m133 2 c0 -3 -4 -8 -10 -11 -5 -3
-10 -1 -10 4 0 6 5 11 10 11 6 0 10 -2 10 -4z m4869 -10 c8 -10 8 -16 -3 -25
-10 -9 -16 -8 -26 3 -12 15 -6 36 9 36 5 0 14 -6 20 -14z m-6169 -6 c-8 -5
-19 -10 -25 -10 -5 0 -3 5 5 10 8 5 20 10 25 10 6 0 3 -5 -5 -10z m1095 1
c-14 -14 -73 -26 -60 -13 6 5 19 12 30 15 34 8 40 8 30 -2z m155 -1 c-20 -13
-33 -13 -25 0 3 6 14 10 23 10 15 0 15 -2 2 -10z m1855 0 c7 -12 -2 -12 -30 0
-19 8 -19 9 2 9 12 1 25 -3 28 -9z m89 -22 c-5 -8 -53 0 -64 9 -2 2 1 8 9 12
14 9 62 -9 55 -21z m485 12 c-24 -10 -56 -22 -71 -28 -22 -9 -26 -8 -24 5 4
23 39 38 92 39 l46 1 -43 -17z m-2474 0 c-3 -5 -14 -10 -23 -10 -15 0 -15 2
-2 10 20 13 33 13 25 0z m405 0 c0 -5 -7 -10 -16 -10 -8 0 -12 5 -9 10 3 6 10
10 16 10 5 0 9 -4 9 -10z m420 6 c0 -3 -4 -8 -10 -11 -5 -3 -10 -1 -10 4 0 6
5 11 10 11 6 0 10 -2 10 -4z m400 -6 c0 -5 -4 -10 -10 -10 -5 0 -10 5 -10 10
0 6 5 10 10 10 6 0 10 -4 10 -10z m2557 4 c-3 -3 -12 -4 -19 -1 -8 3 -5 6 6 6
11 1 17 -2 13 -5z m-6622 -14 c3 -5 1 -10 -4 -10 -6 0 -11 5 -11 10 0 6 2 10
4 10 3 0 8 -4 11 -10z m2447 -6 c-12 -8 -22 -22 -22 -31 0 -15 19 -14 66 4 11
4 15 3 11 -4 -4 -6 -19 -14 -34 -18 -15 -3 -32 -14 -39 -23 -7 -9 -16 -13 -20
-9 -5 4 -2 12 6 17 26 16 -6 11 -71 -11 -33 -12 -74 -22 -91 -23 -17 -1 -34
-10 -40 -19 -6 -12 -16 -15 -35 -11 -22 6 -24 4 -18 -15 6 -18 3 -20 -22 -16
-34 7 -98 -30 -71 -40 9 -4 38 1 65 10 26 9 111 32 188 51 168 41 205 53 225
69 8 7 35 15 60 19 40 5 43 4 22 -7 -14 -8 -19 -16 -13 -22 6 -6 4 -17 -5 -30
-12 -16 -19 -18 -42 -9 -32 12 -103 -5 -110 -26 -4 -10 3 -11 28 -6 33 6 33 6
15 -14 -23 -25 -40 -25 -76 1 l-29 20 -151 -45 c-84 -25 -155 -48 -157 -51 -3
-3 17 -5 44 -5 32 0 59 7 79 20 39 26 60 25 79 -1 15 -22 15 -22 93 -5 43 10
101 21 128 25 68 10 297 86 370 123 54 27 145 44 145 26 0 -3 3 -14 7 -23 5
-14 2 -16 -14 -11 -12 4 -25 1 -33 -9 -7 -8 -27 -15 -44 -15 -18 0 -61 -12
-97 -26 -35 -14 -100 -38 -144 -54 -147 -53 -179 -70 -155 -85 16 -10 11 -52
-7 -59 -12 -5 -26 3 -46 24 -22 23 -34 29 -50 24 -12 -4 -35 -10 -52 -14 -37
-9 -592 -161 -698 -191 -63 -18 -77 -26 -71 -38 26 -63 4 -111 -51 -111 -38 0
-55 20 -55 65 0 21 -4 25 -19 20 -11 -3 -51 -14 -89 -25 -50 -14 -82 -30 -112
-57 -50 -45 -88 -56 -110 -32 -15 16 -20 16 -85 -12 -39 -16 -185 -72 -325
-125 -140 -52 -267 -99 -282 -105 -17 -7 -31 -23 -38 -45 -12 -35 -42 -51 -79
-41 -10 2 -29 -4 -42 -14 -15 -11 -41 -19 -67 -19 -35 0 -49 6 -73 30 -34 33
-33 53 4 104 14 20 17 31 9 34 -38 12 -56 74 -30 100 19 19 63 14 83 -9 16
-16 17 -25 8 -48 -10 -28 -9 -29 28 -40 40 -12 79 -7 114 13 11 7 61 27 110
45 123 46 151 61 135 71 -23 14 -19 37 7 49 35 16 193 74 306 112 53 18 97 38
97 45 0 6 9 19 20 29 18 16 23 17 48 5 34 -17 61 -13 88 11 11 11 56 31 100
45 83 26 126 52 65 39 -23 -5 -31 -4 -27 4 4 6 12 11 17 11 6 0 20 12 33 26
19 23 25 25 45 15 12 -7 35 -10 52 -6 24 5 28 4 23 -9 -7 -19 14 -21 69 -5 42
11 48 26 15 32 -21 3 -20 4 7 11 62 16 86 29 76 39 -16 16 -13 37 4 37 8 0 15
-8 15 -19 0 -16 5 -17 48 -10 26 4 74 20 107 35 32 15 65 27 72 27 7 0 13 4
13 9 0 4 3 7 8 6 9 -2 56 17 100 40 23 12 32 22 28 34 -2 10 0 21 5 24 5 3 9
0 9 -5 0 -18 30 -13 62 10 18 14 33 18 39 12 15 -15 71 -3 65 13 -3 8 -1 14 4
14 6 0 10 -4 10 -8 0 -4 25 -3 55 2 42 8 55 14 55 28 0 9 12 24 28 32 36 20
52 20 24 0z m163 -10 c-27 -7 -51 -11 -54 -9 -2 3 2 7 10 9 8 2 28 9 44 14 17
5 34 7 40 4 5 -3 -13 -12 -40 -18z m1108 19 c-7 -2 -21 -2 -30 0 -10 3 -4 5
12 5 17 0 24 -2 18 -5z m837 -3 c0 -5 -5 -10 -11 -10 -5 0 -7 5 -4 10 3 6 8
10 11 10 2 0 4 -4 4 -10z m2137 -1 c6 -6 9 -17 6 -24 -6 -17 23 -23 62 -15 17
4 51 4 75 0 l45 -7 -40 -3 c-78 -4 -139 -9 -151 -14 -7 -3 -15 2 -18 9 -3 8
-20 19 -38 25 -30 9 -31 10 -4 6 21 -3 30 1 33 15 6 22 14 24 30 8z m-4797 -9
c8 -5 12 -11 10 -14 -3 -2 -14 2 -24 10 -22 15 -10 19 14 4z m2120 0 c0 -5 -4
-10 -10 -10 -5 0 -10 5 -10 10 0 6 5 10 10 10 6 0 10 -4 10 -10z m630 -16 c0
-19 -28 -30 -42 -16 -8 8 -8 15 1 26 14 17 41 10 41 -10z m2610 16 c0 -5 -4
-10 -10 -10 -5 0 -10 5 -10 10 0 6 5 10 10 10 6 0 10 -4 10 -10z m235 0 c-3
-5 -11 -10 -16 -10 -6 0 -7 5 -4 10 3 6 11 10 16 10 6 0 7 -4 4 -10z m-7673
-22 c-7 -7 -12 -8 -12 -2 0 14 12 26 19 19 2 -3 -1 -11 -7 -17z m2393 12 c-3
-5 -12 -10 -18 -10 -7 0 -6 4 3 10 19 12 23 12 15 0z m587 -13 c12 -19 3 -32
-23 -32 -19 0 -24 5 -23 23 0 16 -4 21 -13 18 -8 -4 -11 -1 -7 5 7 13 56 2 66
-14z m306 11 c-3 -7 -15 -15 -28 -16 -21 -3 -22 -2 -11 12 16 19 44 21 39 4z
m1826 -3 c28 -5 44 -11 39 -16 -9 -9 -113 16 -113 27 0 4 6 4 14 1 7 -3 35 -9
60 -12z m1659 8 c-7 -2 -21 -2 -30 0 -10 3 -4 5 12 5 17 0 24 -2 18 -5z m610
0 c-7 -2 -19 -2 -25 0 -7 3 -2 5 12 5 14 0 19 -2 13 -5z m947 -22 c0 -5 -7
-14 -15 -21 -13 -11 -20 -10 -41 1 -17 9 -21 15 -12 18 7 2 17 10 21 18 6 10
13 10 28 3 10 -6 19 -14 19 -19z m-6605 9 c-3 -5 -11 -10 -16 -10 -6 0 -7 5
-4 10 3 6 11 10 16 10 6 0 7 -4 4 -10z m829 -5 c-4 -8 -12 -15 -20 -15 -17 0
-18 17 -1 23 22 9 27 7 21 -8z m171 5 c-3 -5 -11 -10 -16 -10 -6 0 -7 5 -4 10
3 6 11 10 16 10 6 0 7 -4 4 -10z m792 -16 c-3 -4 -14 -3 -24 0 -15 6 -15 8 -3
16 16 10 39 -4 27 -16z m123 16 c0 -5 -4 -10 -10 -10 -5 0 -10 5 -10 10 0 6 5
10 10 10 6 0 10 -4 10 -10z m1745 0 c-3 -5 -14 -10 -23 -10 -15 0 -15 -2 -2
-10 8 -5 34 -10 58 -10 25 0 41 -4 37 -10 -3 -5 -12 -7 -20 -3 -8 3 -15 1 -15
-4 0 -6 89 -27 198 -47 108 -21 269 -53 357 -73 152 -34 172 -37 220 -34 34 3
85 -11 85 -22 0 -5 8 -3 18 6 23 21 65 22 81 3 10 -12 8 -17 -8 -25 -26 -14
-31 -14 -31 4 0 8 -3 15 -7 15 -12 0 -38 -18 -33 -22 21 -13 80 -39 103 -44
20 -5 25 -10 18 -17 -8 -8 -22 -5 -48 8 -36 17 -58 22 -144 28 -20 1 -43 8
-52 15 -16 14 -37 9 -37 -8 0 -4 12 -12 26 -17 l26 -9 -29 -14 c-47 -24 -60
-39 -56 -64 4 -20 -3 -27 -42 -46 -25 -12 -50 -33 -55 -45 -11 -28 -36 -38
-62 -24 -16 8 -19 18 -16 46 l4 36 -76 -6 c-42 -3 -81 -3 -86 2 -5 4 -36 19
-69 34 -45 19 -101 31 -230 46 -93 12 -267 35 -385 52 -197 28 -320 47 -835
130 -216 35 -242 36 -250 10 -13 -41 -59 -30 -87 22 -16 30 13 62 69 76 26 7
56 17 65 22 23 12 28 11 28 -4 0 -24 -22 -38 -38 -24 -12 10 -14 9 -10 -3 6
-19 124 -22 152 -3 16 10 24 10 40 0 16 -10 61 -11 201 -6 99 4 306 11 460 14
154 4 285 10 290 14 6 4 37 7 69 5 33 -1 75 4 95 11 45 17 54 18 46 5z m-2505
-8 c0 -4 -9 -8 -20 -9 -11 -1 -20 2 -20 5 0 4 9 8 20 9 11 1 20 -2 20 -5z
m710 -7 c7 -8 10 -22 6 -30 -3 -9 0 -15 9 -15 8 0 15 -5 15 -11 0 -7 -9 -9
-22 -6 -12 4 -27 2 -33 -3 -8 -7 -16 -2 -25 15 -12 22 -11 27 5 45 22 24 29
25 45 5z m-4300 -5 c0 -5 -5 -10 -11 -10 -5 0 -7 5 -4 10 3 6 8 10 11 10 2 0
4 -4 4 -10z m975 0 c3 -5 1 -10 -4 -10 -6 0 -11 5 -11 10 0 6 2 10 4 10 3 0 8
-4 11 -10z m3446 -13 c-10 -9 -11 -8 -5 6 3 10 9 15 12 12 3 -3 0 -11 -7 -18z
m4009 3 c8 -5 11 -12 7 -17 -5 -4 -11 -2 -15 4 -4 6 -18 13 -32 16 l-25 4 25
1 c14 1 32 -2 40 -8z m90 6 c0 -3 -4 -8 -10 -11 -5 -3 -10 -1 -10 4 0 6 5 11
10 11 6 0 10 -2 10 -4z m337 -3 c-8 -7 -77 -6 -85 2 -3 3 16 5 43 5 27 0 45
-3 42 -7z m-8987 -13 c0 -5 -4 -10 -10 -10 -5 0 -10 5 -10 10 0 6 5 10 10 10
6 0 10 -4 10 -10z m4160 -18 c0 -15 -2 -15 -10 -2 -13 20 -13 33 0 25 6 -3 10
-14 10 -23z m2200 18 c0 -5 -9 -9 -20 -7 -31 5 -36 17 -7 17 15 0 27 -4 27
-10z m-5720 -10 c0 -5 -4 -10 -10 -10 -5 0 -10 5 -10 10 0 6 5 10 10 10 6 0
10 -4 10 -10z m3580 -11 c0 -5 -7 -9 -15 -9 -9 0 -12 6 -9 15 6 15 24 11 24
-6z m2217 15 c-3 -3 -12 -4 -19 -1 -8 3 -5 6 6 6 11 1 17 -2 13 -5z m91 -1
c-16 -2 -40 -2 -55 0 -16 2 -3 4 27 4 30 0 43 -2 28 -4z m357 -9 c228 -6 294
-10 303 -19 5 -5 -44 -9 -78 -7 -8 0 -49 4 -90 7 -41 3 -149 8 -240 10 -91 2
-178 9 -195 14 -24 8 -18 9 30 5 33 -2 155 -6 270 -10z m1140 6 c3 -5 -1 -10
-9 -10 -9 0 -16 5 -16 10 0 6 4 10 9 10 6 0 13 -4 16 -10z m-5247 -23 c3 -13
-4 -17 -29 -17 -32 0 -32 0 -14 20 21 23 38 22 43 -3z m82 14 c0 -15 -16 -22
-34 -15 -25 9 -19 24 9 24 14 0 25 -4 25 -9z m244 -6 c-4 -8 -11 -12 -16 -9
-6 4 -5 10 3 15 19 12 19 11 13 -6z m296 5 c0 -5 -4 -10 -10 -10 -5 0 -10 5
-10 10 0 6 5 10 10 10 6 0 10 -4 10 -10z m445 1 c-29 -12 -174 -21 -180 -11
-6 10 26 14 130 17 46 2 63 0 50 -6z m275 -1 c0 -5 -7 -10 -15 -10 -8 0 -15 5
-15 10 0 6 7 10 15 10 8 0 15 -4 15 -10z m3203 3 c-19 -7 -16 -21 5 -25 9 -3
0 -6 -21 -9 -20 -3 -43 -1 -50 3 -8 5 -5 8 9 8 12 0 27 7 34 15 7 8 18 15 24
14 7 0 6 -2 -1 -6z m165 -21 c2 -7 -7 -12 -22 -12 -13 0 -37 -5 -51 -10 -20
-8 -30 -7 -41 4 -12 13 -9 15 28 18 27 2 42 8 41 15 -3 16 39 1 45 -15z
m-2878 3 c0 -8 -4 -15 -9 -15 -13 0 -22 16 -14 24 11 11 23 6 23 -9z m-1902
-13 c2 -7 -3 -12 -12 -12 -9 0 -16 7 -16 16 0 17 22 14 28 -4z m5221 9 c26
-16 -5 -41 -41 -34 -28 6 -30 4 -24 -18 7 -22 6 -23 -7 -6 -14 17 -15 16 -21
-9 -4 -14 -4 -34 -1 -44 3 -11 0 -20 -10 -24 -8 -3 -15 -12 -15 -20 0 -8 -5
-18 -12 -22 -8 -5 -9 -2 -5 9 10 27 -15 20 -41 -10 l-24 -28 22 33 c12 18 19
36 15 40 -4 4 -46 7 -95 8 -77 0 -89 -2 -93 -18 -6 -21 -40 -24 -56 -4 -7 8
-24 13 -39 11 -15 -2 -38 -4 -51 -4 -20 -1 -21 -3 -11 -16 10 -13 9 -15 -9
-15 -11 0 -21 4 -21 9 0 12 -57 22 -86 15 -19 -5 -22 -9 -13 -20 14 -17 3 -34
-21 -34 -27 0 -36 21 -16 35 14 11 14 14 1 25 -8 7 -13 16 -10 20 7 12 55 18
61 8 3 -5 19 -6 34 -3 16 4 31 2 35 -5 4 -6 16 -8 28 -4 26 9 89 13 212 14 50
0 86 4 80 8 -5 4 -11 14 -13 23 -2 15 1 15 44 0 44 -15 46 -15 60 3 8 11 12
27 9 36 -4 14 1 16 25 12 23 -3 37 1 51 17 21 23 36 26 58 12z m-6833 -12 c7
-12 -15 -31 -28 -23 -4 3 -8 12 -8 20 0 17 26 19 36 3z m6606 -11 c-7 -7 -12
-8 -12 -2 0 14 12 26 19 19 2 -3 -1 -11 -7 -17z m-132 2 c13 -8 13 -10 -2 -10
-9 0 -20 5 -23 10 -8 13 5 13 25 0z m-6340 -10 c0 -5 -4 -10 -10 -10 -5 0 -10
5 -10 10 0 6 5 10 10 10 6 0 10 -4 10 -10z m5965 0 c3 -5 -1 -10 -10 -10 -9 0
-13 5 -10 10 3 6 8 10 10 10 2 0 7 -4 10 -10z m-2847 -28 c4 -28 -24 -40 -45
-19 -14 13 -14 19 -3 32 18 22 44 15 48 -13z m3122 18 c0 -5 -4 -10 -10 -10
-5 0 -10 5 -10 10 0 6 5 10 10 10 6 0 10 -4 10 -10z m540 6 c0 -3 -4 -8 -10
-11 -5 -3 -10 -1 -10 4 0 6 5 11 10 11 6 0 10 -2 10 -4z m-6115 -16 c3 -5 -1
-10 -9 -10 -9 0 -16 5 -16 10 0 6 4 10 9 10 6 0 13 -4 16 -10z m6695 -20 c0
-5 -4 -10 -9 -10 -6 0 -13 5 -16 10 -3 6 1 10 9 10 9 0 16 -4 16 -10z m-7234
-27 c-10 -10 -19 5 -10 18 6 11 8 11 12 0 2 -7 1 -15 -2 -18z m2024 17 c0 -5
-7 -10 -16 -10 -8 0 -12 5 -9 10 3 6 10 10 16 10 5 0 9 -4 9 -10z m1248 -7
c-2 -10 -12 -18 -23 -18 -11 0 -21 8 -23 18 -3 13 3 17 23 17 20 0 26 -4 23
-17z m2442 13 c0 -3 -4 -8 -10 -11 -5 -3 -10 -1 -10 4 0 6 5 11 10 11 6 0 10
-2 10 -4z m-7003 -22 c5 -15 -20 -24 -37 -14 -7 4 -9 13 -5 19 8 14 37 11 42
-5z m1863 12 c0 -3 -4 -8 -10 -11 -5 -3 -10 -1 -10 4 0 6 5 11 10 11 6 0 10
-2 10 -4z m6130 -6 c0 -5 -4 -10 -10 -10 -5 0 -10 5 -10 10 0 6 5 10 10 10 6
0 10 -4 10 -10z m185 0 c3 -5 1 -10 -4 -10 -6 0 -11 5 -11 10 0 6 2 10 4 10 3
0 8 -4 11 -10z m-6985 -10 c0 -5 -5 -10 -11 -10 -5 0 -7 5 -4 10 3 6 8 10 11
10 2 0 4 -4 4 -10z m55 0 c3 -5 1 -10 -4 -10 -6 0 -11 5 -11 10 0 6 2 10 4 10
3 0 8 -4 11 -10z m6555 3 c0 -5 -5 -15 -10 -23 -8 -12 -10 -11 -10 8 0 12 5
22 10 22 6 0 10 -3 10 -7z m-3472 -25 c19 -19 14 -55 -10 -72 -40 -28 -73 14
-52 68 7 19 45 21 62 4z m3960 -20 c4 -20 -35 -35 -51 -19 -7 7 -6 15 3 26 16
19 44 16 48 -7z m-7704 3 c9 -14 -4 -41 -19 -41 -21 0 -36 25 -23 38 14 14 35
16 42 3z m746 -1 c0 -5 -2 -10 -4 -10 -3 0 -8 5 -11 10 -3 6 -1 10 4 10 6 0
11 -4 11 -10z m996 -6 c13 -11 15 -17 7 -20 -7 -3 -13 -12 -13 -20 0 -13 -3
-13 -22 0 -12 9 -32 16 -43 17 -19 0 -19 1 1 9 12 5 25 13 29 19 9 15 18 14
41 -5z m2546 -1 c24 -21 23 -45 -2 -68 -17 -16 -23 -17 -45 -5 -32 17 -39 38
-20 66 18 28 41 31 67 7z m4017 -4 c-7 -4 -17 -5 -22 -2 -5 3 -3 9 4 14 7 4
17 5 22 2 5 -3 3 -9 -4 -14z m-4239 -3 c6 -8 10 -25 8 -38 -6 -43 -88 -33 -88
11 0 38 55 56 80 27z m3190 4 c0 -5 -4 -10 -9 -10 -6 0 -13 5 -16 10 -3 6 1
10 9 10 9 0 16 -4 16 -10z m55 0 c8 -13 -5 -13 -25 0 -13 8 -13 10 2 10 9 0
20 -4 23 -10z m470 0 c3 -5 -1 -10 -10 -10 -9 0 -13 5 -10 10 3 6 8 10 10 10
2 0 7 -4 10 -10z m-6447 -23 c2 -11 -3 -17 -16 -17 -26 0 -34 11 -20 27 14 17
32 12 36 -10z m5732 19 c0 -11 -19 -15 -25 -6 -3 5 1 10 9 10 9 0 16 -2 16 -4z
m325 -6 c3 -6 -1 -7 -9 -4 -18 7 -21 14 -7 14 6 0 13 -4 16 -10z m-6410 -15
c34 -15 28 -17 -61 -19 -51 -2 -51 -1 -31 16 24 21 51 22 92 3z m5880 -15 c-5
-8 -11 -8 -17 -2 -6 6 -7 16 -3 22 5 8 11 8 17 2 6 -6 7 -16 3 -22z m125 20
c0 -5 -4 -10 -10 -10 -5 0 -10 5 -10 10 0 6 5 10 10 10 6 0 10 -4 10 -10z
m360 1 c0 -6 -4 -12 -8 -15 -5 -3 -9 1 -9 9 0 8 4 15 9 15 4 0 8 -4 8 -9z
m-7043 -17 c8 -20 -9 -36 -30 -28 -20 7 -22 30 -4 37 21 9 27 7 34 -9z m553 6
c0 -5 -7 -10 -15 -10 -8 0 -15 5 -15 10 0 6 7 10 15 10 8 0 15 -4 15 -10z
m220 0 c0 -5 -5 -10 -11 -10 -5 0 -7 5 -4 10 3 6 8 10 11 10 2 0 4 -4 4 -10z
m35 0 c3 -5 -1 -10 -9 -10 -9 0 -16 5 -16 10 0 6 4 10 9 10 6 0 13 -4 16 -10z
m45 0 c0 -5 -4 -10 -10 -10 -5 0 -10 5 -10 10 0 6 5 10 10 10 6 0 10 -4 10
-10z m215 0 c-3 -5 -11 -10 -16 -10 -6 0 -7 5 -4 10 3 6 11 10 16 10 6 0 7 -4
4 -10z m6071 -6 c18 -14 18 -14 -6 -3 -31 14 -36 19 -24 19 6 0 19 -7 30 -16z
m-6783 -1 c-7 -2 -19 -2 -25 0 -7 3 -2 5 12 5 14 0 19 -2 13 -5z m94 1 c-3 -3
-12 -4 -19 -1 -8 3 -5 6 6 6 11 1 17 -2 13 -5z m53 -4 c0 -5 -4 -10 -10 -10
-5 0 -10 5 -10 10 0 6 5 10 10 10 6 0 10 -4 10 -10z m407 4 c-3 -3 -12 -4 -19
-1 -8 3 -5 6 6 6 11 1 17 -2 13 -5z m5543 -3 c0 -12 -20 -25 -27 -18 -7 7 6
27 18 27 5 0 9 -4 9 -9z m1130 -1 c0 -5 -2 -10 -4 -10 -3 0 -8 5 -11 10 -3 6
-1 10 4 10 6 0 11 -4 11 -10z m-330 -9 c0 -6 -20 -13 -45 -17 -36 -5 -46 -11
-51 -30 -7 -27 -27 -33 -22 -6 2 9 -3 22 -12 29 -13 10 -10 13 15 13 17 1 39
5 50 10 27 12 65 12 65 1z m190 -1 c0 -5 -2 -10 -4 -10 -3 0 -8 5 -11 10 -3 6
-1 10 4 10 6 0 11 -4 11 -10z m318 -17 c5 -17 -26 -29 -40 -15 -6 6 -7 15 -3
22 9 14 37 9 43 -7z m184 -13 c-5 -36 -15 -44 -43 -35 -26 9 -20 25 17 46 16
10 29 18 30 18 0 1 -1 -13 -4 -29z m-7367 10 c-3 -5 -11 -10 -16 -10 -6 0 -7
5 -4 10 3 6 11 10 16 10 6 0 7 -4 4 -10z m3670 -30 c25 -36 27 -43 17 -82 -10
-37 -9 -43 9 -56 10 -7 19 -19 19 -27 0 -23 35 -36 134 -50 158 -24 552 -55
613 -49 53 6 60 4 86 -19 33 -31 35 -65 5 -102 -20 -25 -25 -27 -72 -20 -28 4
-94 8 -146 9 l-95 1 -3 -32 c-2 -23 -14 -41 -40 -63 -41 -33 -69 -37 -112 -15
-35 18 -50 43 -50 83 0 28 -4 31 -47 41 -27 6 -79 9 -118 6 -216 -14 -301 -13
-335 1 -42 17 -67 59 -43 73 21 11 -1 16 -155 35 -91 12 -129 13 -144 5 -11
-6 -40 -9 -64 -7 -24 2 -44 1 -44 -2 0 -3 -29 -25 -64 -48 -35 -24 -73 -56
-84 -72 -12 -15 -37 -33 -57 -40 -30 -10 -41 -9 -72 7 -48 23 -86 78 -73 103
17 32 70 62 123 70 29 4 46 8 38 9 -7 0 -11 7 -7 16 7 18 -3 45 -16 45 -5 0
-6 -4 -3 -10 3 -5 2 -10 -4 -10 -12 0 -25 19 -17 27 3 3 34 5 68 5 35 -1 80 2
102 7 52 13 106 66 106 105 0 56 54 87 82 47 8 -11 20 -19 28 -19 50 3 75 -27
58 -71 -4 -13 -6 -27 -2 -30 3 -3 61 -8 130 -11 123 -5 124 -5 124 18 0 12 -4
22 -9 22 -15 0 -41 30 -41 46 0 8 11 19 25 24 14 5 25 14 25 19 0 19 44 51 71
51 19 0 33 -10 54 -40z m2445 30 c0 -5 -7 -10 -15 -10 -8 0 -15 5 -15 10 0 6
7 10 15 10 8 0 15 -4 15 -10z m270 0 c0 -5 -2 -10 -4 -10 -3 0 -8 5 -11 10 -3
6 -1 10 4 10 6 0 11 -4 11 -10z m320 0 c0 -5 -2 -10 -4 -10 -3 0 -8 5 -11 10
-3 6 -1 10 4 10 6 0 11 -4 11 -10z m1140 -12 c10 -6 6 -7 -15 -3 -16 4 -34 11
-40 17 -12 12 31 1 55 -14z m-2010 -3 c7 -8 20 -15 29 -15 9 0 26 -11 39 -24
20 -22 21 -26 6 -40 -23 -23 -43 -20 -54 9 -6 17 -20 27 -40 32 -37 7 -46 19
-30 38 16 19 34 19 50 0z m940 5 c0 -5 -2 -10 -4 -10 -3 0 -8 5 -11 10 -3 6
-1 10 4 10 6 0 11 -4 11 -10z m-620 -5 c0 -3 -9 -24 -20 -45 -17 -32 -18 -43
-8 -59 10 -16 7 -24 -19 -54 -17 -19 -32 -40 -34 -45 -2 -6 -11 -12 -19 -14
-11 -2 -15 10 -16 59 -1 59 0 62 27 74 16 6 29 14 29 18 0 3 11 18 24 33 14
14 22 29 19 32 -4 3 -1 6 5 6 7 0 12 -2 12 -5z m348 -11 c-9 -10 -24 -14 -33
-10 -23 9 -9 26 23 26 24 0 25 -1 10 -16z m239 -36 c-4 -28 -12 -56 -18 -62
-8 -8 -9 -2 -3 24 4 19 8 47 9 63 0 15 4 27 9 27 5 0 6 -23 3 -52z m-733 21
c-3 -5 -10 -7 -15 -3 -5 3 -7 10 -3 15 3 5 10 7 15 3 5 -3 7 -10 3 -15z m816
11 c0 -13 -11 -13 -30 0 -12 8 -11 10 8 10 12 0 22 -4 22 -10z m-4579 -10 c24
-13 27 -75 4 -88 -26 -14 -8 -37 30 -38 19 0 35 4 35 10 0 21 44 56 71 56 32
0 69 -40 69 -76 0 -19 8 -26 43 -36 l42 -13 -80 -6 c-62 -5 -89 -3 -120 10
-84 35 -145 9 -145 -61 0 -46 -28 -78 -68 -78 -40 0 -67 32 -64 78 2 20 4 65
5 98 l2 62 48 13 c26 7 47 18 47 24 0 18 30 55 46 55 9 0 24 -5 35 -10z m4188
1 c17 -11 6 -31 -17 -31 -25 0 -46 16 -38 29 8 13 36 14 55 2z m467 -6 c10 -8
14 -15 8 -15 -5 0 -19 7 -30 15 -10 8 -14 15 -8 15 5 0 19 -7 30 -15z m979 5
c-11 -5 -33 -8 -50 -8 l-30 0 30 8 c17 4 39 8 50 8 l20 1 -20 -9z m-9315 -25
c0 -8 -2 -15 -4 -15 -2 0 -6 7 -10 15 -3 8 -1 15 4 15 6 0 10 -7 10 -15z
m7795 -5 c0 -22 -39 -19 -43 3 -3 15 1 18 20 15 12 -2 23 -10 23 -18z m163 8
c-6 -18 -28 -21 -28 -4 0 9 7 16 16 16 9 0 14 -5 12 -12z m457 2 c3 -5 1 -10
-4 -10 -6 0 -11 5 -11 10 0 6 2 10 4 10 3 0 8 -4 11 -10z m710 0 c4 6 25 10
48 10 l42 -1 -50 -19 c-52 -21 -82 -24 -109 -14 -15 6 -15 8 1 19 11 9 25 10
40 4 13 -5 25 -4 28 1z m-7859 -11 c10 -17 -13 -36 -27 -22 -12 12 -4 33 11
33 5 0 12 -5 16 -11z m5804 1 c0 -5 -8 -10 -17 -10 -15 0 -16 2 -3 10 19 12
20 12 20 0z m1000 0 c0 -5 -5 -10 -11 -10 -5 0 -7 5 -4 10 3 6 8 10 11 10 2 0
4 -4 4 -10z m660 -4 c0 -16 -18 -31 -27 -22 -8 8 5 36 17 36 5 0 10 -6 10 -14z
m-8195 -26 c-5 -8 -11 -8 -17 -2 -6 6 -7 16 -3 22 5 8 11 8 17 2 6 -6 7 -16 3
-22z m1109 15 c-4 -8 -8 -15 -10 -15 -2 0 -4 7 -4 15 0 8 4 15 10 15 5 0 7 -7
4 -15z m4766 11 c0 -2 -7 -7 -16 -10 -8 -3 -12 -2 -9 4 6 10 25 14 25 6z
m1020 -27 c0 -21 -1 -22 -24 -13 -19 7 -21 30 -3 37 18 6 27 -2 27 -24z m1080
21 c0 -5 -2 -10 -4 -10 -3 0 -8 5 -11 10 -3 6 -1 10 4 10 6 0 11 -4 11 -10z
m-8202 -11 c-2 -6 -8 -10 -13 -10 -5 0 -11 4 -13 10 -2 6 4 11 13 11 9 0 15
-5 13 -11z m1000 0 c-2 -6 -8 -10 -13 -10 -5 0 -11 4 -13 10 -2 6 4 11 13 11
9 0 15 -5 13 -11z m6422 1 c0 -5 -17 -10 -37 -10 -28 0 -34 3 -23 10 20 13 60
13 60 0z m-7705 -45 c0 -25 -4 -30 -24 -30 -13 0 -29 8 -35 18 -9 15 -7 21 9
33 30 22 50 13 50 -21z m1380 25 c3 -5 1 -10 -4 -10 -6 0 -11 5 -11 10 0 6 2
10 4 10 3 0 8 -4 11 -10z m6615 -5 c9 -11 16 -12 26 -4 20 16 34 2 34 -36 0
-41 10 -49 45 -33 38 17 51 -1 29 -43 -17 -33 -17 -33 -27 -11 -6 12 -15 22
-21 22 -22 0 -57 -32 -54 -48 2 -10 -4 -24 -13 -32 -26 -23 -32 -77 -11 -89
15 -9 14 -10 -5 -11 -17 0 -21 -4 -16 -17 6 -16 5 -16 -10 -5 -9 8 -16 17 -15
20 5 42 -4 60 -34 68 -25 7 -39 20 -56 54 -16 33 -34 51 -67 68 -57 29 -59 47
-5 38 35 -5 42 -3 48 14 18 48 124 79 152 45z m560 5 c0 -5 -2 -10 -4 -10 -3
0 -8 5 -11 10 -3 6 -1 10 4 10 6 0 11 -4 11 -10z m297 -5 c3 -9 2 -19 -1 -23
-8 -8 -38 10 -44 26 -6 18 38 14 45 -3z m-607 -5 c0 -5 -4 -10 -10 -10 -5 0
-10 5 -10 10 0 6 5 10 10 10 6 0 10 -4 10 -10z m428 -17 c5 -33 -30 -48 -53
-23 -24 27 -12 52 22 48 20 -2 29 -9 31 -25z m-7148 -8 c0 -18 -15 -26 -34
-19 -19 7 -21 31 -3 37 18 6 37 -3 37 -18z m-1720 -1 c11 -12 10 -18 -3 -32
-16 -15 -18 -15 -34 0 -13 14 -14 20 -3 32 7 9 16 16 20 16 4 0 13 -7 20 -16z
m3290 -5 c27 -50 -10 -95 -58 -69 -33 19 -39 45 -16 71 23 25 60 24 74 -2z
m4224 -8 c24 -26 17 -53 -16 -65 -32 -11 -58 6 -58 38 0 45 44 61 74 27z
m2106 -6 c0 -9 -7 -18 -16 -22 -18 -7 -39 11 -30 26 11 17 46 13 46 -4z
m-1083 -11 c8 -21 -13 -42 -28 -27 -13 13 -5 43 11 43 6 0 13 -7 17 -16z m373
1 c7 -9 10 -18 7 -22 -8 -7 -37 15 -37 28 0 14 16 11 30 -6z m467 -22 c-3 -10
-5 -4 -5 12 0 17 2 24 5 18 2 -7 2 -21 0 -30z m-7392 6 c4 -13 0 -27 -11 -40
-23 -26 -31 -24 -49 11 -14 27 -14 30 3 39 27 17 50 13 57 -10z m6443 -11 c-2
-21 -8 -33 -18 -33 -19 0 -25 32 -10 50 20 24 31 17 28 -17z m205 13 c6 -26
-8 -49 -17 -26 -9 24 -8 45 3 45 5 0 11 -9 14 -19z m97 -2 c0 -6 -4 -7 -10 -4
-5 3 -10 11 -10 16 0 6 5 7 10 4 6 -3 10 -11 10 -16z m-7945 1 c3 -5 1 -10 -4
-10 -6 0 -11 5 -11 10 0 6 2 10 4 10 3 0 8 -4 11 -10z m5792 -16 c15 -23 15
-29 2 -52 -24 -42 -44 -49 -76 -26 -34 26 -39 48 -19 79 23 35 70 34 93 -1z
m-5407 -14 c22 -40 -26 -80 -58 -48 -13 13 -16 50 -5 61 14 14 53 6 63 -13z
m418 -2 c17 -17 15 -48 -4 -55 -8 -3 -22 1 -31 9 -12 12 -13 20 -4 37 13 24
22 26 39 9z m7252 -14 c0 -8 -4 -14 -10 -14 -5 0 -10 9 -10 21 0 11 5 17 10
14 6 -3 10 -13 10 -21z m-7496 -6 c15 -24 -13 -53 -43 -43 -21 6 -29 43 -14
59 12 12 45 2 57 -16z m2164 -6 c26 -34 4 -94 -39 -105 -26 -7 -69 32 -69 63
0 12 11 32 25 46 27 27 59 26 83 -4z m5017 -3 c-10 -15 -25 -10 -19 6 4 8 10
12 15 9 5 -3 7 -10 4 -15z m-8376 -3 c9 -11 10 -20 1 -36 -13 -24 -38 -23 -53
1 -23 37 25 68 52 35z m1321 4 c0 -5 -5 -10 -11 -10 -5 0 -7 5 -4 10 3 6 8 10
11 10 2 0 4 -4 4 -10z m1513 -21 c17 -23 18 -31 8 -62 -18 -55 -75 -65 -110
-21 -27 34 -27 62 1 91 29 31 74 28 101 -8z m-1173 -4 c10 -12 10 -18 0 -30
-25 -30 -61 -7 -46 30 3 8 12 15 19 15 8 0 20 -7 27 -15z m7762 -7 c-7 -7 -12
-8 -12 -2 0 14 12 26 19 19 2 -3 -1 -11 -7 -17z m-396 -35 c-11 -11 -19 6 -11
24 8 17 8 17 12 0 3 -10 2 -21 -1 -24z m358 31 c17 -7 22 -34 7 -34 -21 0 -41
13 -41 26 0 15 10 17 34 8z m-6218 -29 c19 -29 12 -55 -14 -55 -24 0 -42 19
-42 45 0 42 31 48 56 10z m4964 5 c0 -5 -2 -10 -4 -10 -3 0 -8 5 -11 10 -3 6
-1 10 4 10 6 0 11 -4 11 -10z m-7016 -16 c19 -18 19 -20 6 -45 -12 -22 -43
-25 -57 -6 -20 24 -22 56 -4 60 30 8 40 7 55 -9z m7236 -14 c23 -23 25 -40 8
-62 -20 -24 -44 -28 -67 -12 -29 21 -29 72 2 84 32 13 35 12 57 -10z m820 -1
c0 -24 -23 -21 -28 4 -2 10 3 17 12 17 10 0 16 -9 16 -21z m-2105 -9 c41 -46
-26 -108 -69 -65 -21 22 -20 41 4 65 25 25 42 25 65 0z m-6771 -5 c22 -22 28
-52 16 -75 -15 -28 -85 -29 -100 -1 -14 28 -12 52 7 73 20 22 56 23 77 3z
m7690 -11 c9 -24 8 -26 -14 -14 -11 6 -18 15 -15 21 9 14 22 11 29 -7z m1077
-5 c13 -24 3 -37 -43 -57 -22 -9 -31 -8 -48 6 -19 16 -20 21 -9 45 10 22 19
27 50 27 29 0 41 -5 50 -21z m-7576 -23 c8 -24 6 -31 -13 -46 -29 -24 -131
-46 -152 -33 -31 20 -23 51 19 77 22 14 47 23 55 20 7 -3 17 0 21 6 4 6 19 10
33 8 19 -2 30 -11 37 -32z m2100 -25 c4 -25 13 -60 21 -78 21 -47 17 -87 -11
-121 -62 -74 -185 -34 -185 60 0 24 44 98 59 98 14 0 61 52 55 61 -3 5 0 9 5
9 6 0 11 6 11 14 0 9 7 12 20 9 14 -4 21 -17 25 -52z m-2601 -27 c22 -21 20
-47 -4 -69 -29 -26 -74 -10 -78 26 -6 49 49 77 82 43z m7858 -8 c14 -32 5 -54
-27 -62 -31 -8 -55 10 -55 40 0 49 62 65 82 22z m-8352 -111 c22 -58 -29 -59
-100 -3 -54 43 -75 78 -65 109 5 16 15 12 82 -34 41 -29 79 -61 83 -72z m3511
69 c28 -26 25 -84 -6 -114 -13 -12 -22 -26 -20 -30 3 -4 -2 -13 -10 -20 -24
-20 -104 8 -89 31 3 5 1 9 -5 9 -14 0 -34 66 -26 90 3 11 18 29 33 41 32 25
92 22 123 -7z m2544 12 c70 -30 74 -88 9 -172 -53 -68 -70 -79 -106 -65 -48
18 -60 49 -49 125 11 74 21 93 66 112 38 17 39 17 80 0z m-4381 -37 c36 -28
37 -89 1 -124 -35 -36 -97 -35 -130 1 -74 79 43 191 129 123z m4841 -22 c7
-25 -7 -71 -25 -82 -14 -9 -80 14 -81 28 -5 54 13 77 62 77 32 0 40 -4 44 -23z
m-5930 -37 c32 -61 10 -99 -57 -100 -31 0 -37 4 -46 28 -14 40 -4 82 22 92 41
17 65 11 81 -20z m-487 -26 c35 -24 45 -59 27 -93 -24 -48 -78 -46 -111 4 -22
33 -10 74 26 92 32 16 31 16 58 -3z m8065 -3 c14 -6 29 -23 36 -41 21 -63 -34
-116 -98 -94 -52 19 -51 112 1 134 30 12 32 12 61 1z m464 -37 c8 -20 -9 -36
-30 -28 -20 7 -22 30 -4 37 21 9 27 7 34 -9z m-8920 -99 c29 -21 34 -49 12
-84 -21 -34 -43 -39 -77 -15 -26 18 -29 59 -6 92 18 26 41 28 71 7z m708 -1
c22 -14 24 -21 19 -58 -8 -58 -22 -83 -55 -96 -26 -11 -28 -16 -25 -60 2 -35
-2 -56 -17 -79 -19 -30 -22 -32 -65 -25 -27 4 -57 17 -75 33 -26 23 -29 31
-24 74 l4 47 -33 0 c-19 0 -34 5 -34 10 0 6 -1 13 -2 18 -2 4 17 10 42 14 104
16 112 19 106 41 -18 69 92 125 159 81z m3027 -13 c23 -11 34 -24 36 -42 4
-38 -22 -59 -73 -59 -24 0 -55 -4 -69 -10 -30 -11 -73 2 -82 25 -29 73 94 129
188 86z m-2730 -6 c121 -37 84 -205 -46 -205 -69 0 -106 35 -106 101 0 34 33
105 52 111 17 6 70 2 100 -7z m1111 -65 c51 -56 29 -150 -40 -169 -25 -7 -39
-7 -43 0 -4 6 -16 5 -34 -5 -36 -18 -64 -10 -88 28 -72 116 112 248 205 146z
m6196 -31 c61 -21 71 -115 19 -175 -31 -35 -34 -36 -87 -32 -63 6 -96 34 -106
92 -9 44 13 78 68 105 48 24 62 25 106 10z m-472 -133 c-7 -23 -72 -46 -129
-46 -31 0 -59 4 -62 9 -5 7 88 41 149 55 19 5 46 -7 42 -18z m-677 -26 c36 2
88 3 115 2 28 -1 73 -2 100 -2 79 0 135 -10 135 -24 0 -16 -29 -28 -125 -54
-38 -11 -87 -29 -108 -41 -23 -13 -55 -21 -83 -21 -34 0 -54 -7 -82 -27 l-36
-28 -205 3 c-138 2 -255 -2 -355 -12 -82 -9 -169 -16 -195 -16 -25 0 -75 -9
-109 -20 -77 -24 -111 -25 -155 -4 -90 43 -88 162 3 209 39 20 69 19 137 -6
54 -21 68 -22 257 -16 251 8 402 23 475 48 43 14 69 17 111 12 30 -4 84 -6
120 -3z m-6766 -263 c22 -22 24 -64 5 -94 -11 -15 -19 -40 -19 -54 0 -32 -13
-48 -71 -92 -45 -34 -93 -48 -168 -48 -63 0 -101 61 -101 164 0 44 2 48 20 42
14 -4 20 -2 20 8 0 22 73 47 136 47 31 0 70 6 87 14 18 8 41 17 52 19 11 3 21
5 23 6 2 0 9 -5 16 -12z m1868 -81 c28 -19 48 -56 48 -91 0 -14 -16 -39 -42
-64 -38 -38 -46 -41 -94 -41 -44 0 -59 5 -84 28 -56 49 -51 158 9 181 36 15
133 7 163 -13z m3355 -182 c7 -18 -6 -45 -25 -52 -6 -2 -20 6 -32 18 -17 17
-19 24 -9 36 16 19 58 18 66 -2z"/>
<path d="M7505 4370 c-3 -5 -1 -10 4 -10 6 0 11 5 11 10 0 6 -2 10 -4 10 -3 0
-8 -4 -11 -10z"/>
<path d="M6191 3883 c-12 -13 -21 -31 -21 -41 0 -19 -14 -44 -24 -43 -18 2
-36 -13 -36 -30 0 -17 -6 -18 -72 -13 l-73 7 5 -91 c3 -50 7 -92 10 -94 3 -2
18 -10 34 -18 58 -30 60 -95 3 -131 -17 -12 -26 -19 -18 -17 8 2 26 -8 40 -22
33 -34 114 -58 220 -64 46 -3 99 -10 118 -17 18 -6 41 -8 49 -5 9 3 12 1 9 -4
-9 -14 8 -12 28 3 15 11 15 15 2 41 -21 40 -19 75 7 116 38 61 48 82 42 91 -3
6 0 16 6 24 31 37 -40 71 -117 56 -27 -5 -46 -4 -52 2 -8 8 -11 8 -11 0 0 -8
-7 -8 -25 0 -14 7 -25 17 -25 24 0 6 -7 19 -16 27 -8 9 -13 20 -9 25 3 5 -4
12 -15 16 -23 7 -27 25 -6 25 19 0 31 39 16 54 -8 8 -9 6 -4 -8 5 -13 4 -17
-4 -12 -23 14 -13 36 16 36 17 0 22 3 15 8 -18 12 6 62 30 62 9 0 17 5 17 10
0 6 -24 10 -59 9 -49 -2 -64 -6 -80 -26z"/>
<path d="M6857 3303 c-4 -3 -7 -11 -7 -17 0 -6 5 -5 12 2 6 6 9 14 7 17 -3 3
-9 2 -12 -2z"/>
<path d="M6172 3244 c3 -45 16 -48 104 -28 126 29 165 56 77 54 -27 -1 -79 1
-116 5 l-68 7 3 -38z"/>
<path d="M6800 3270 c-9 -6 -10 -10 -3 -10 6 0 15 5 18 10 8 12 4 12 -15 0z"/>
<path d="M5833 3022 c-13 -2 -23 -8 -23 -13 0 -9 37 -3 49 7 8 7 -4 10 -26 6z"/>
<path d="M4950 3880 c0 -5 5 -10 11 -10 5 0 7 5 4 10 -3 6 -8 10 -11 10 -2 0
-4 -4 -4 -10z"/>
<path d="M4770 3460 c0 -5 7 -10 15 -10 8 0 15 5 15 10 0 6 -7 10 -15 10 -8 0
-15 -4 -15 -10z"/>
<path d="M4951 2736 c8 -9 88 -13 83 -4 -3 4 -24 8 -46 8 -23 0 -39 -2 -37 -4z"/>
<path d="M4555 2550 c-7 -11 9 -11 45 0 24 8 24 8 -7 9 -17 1 -35 -3 -38 -9z"/>
<path d="M4473 2543 c9 -2 25 -2 35 0 9 3 1 5 -18 5 -19 0 -27 -2 -17 -5z"/>
<path d="M3885 2460 c-3 -6 1 -7 9 -4 18 7 21 14 7 14 -6 0 -13 -4 -16 -10z"/>
<path d="M2205 2300 c-19 -8 -19 -9 3 -9 12 -1 22 4 22 9 0 6 -1 10 -2 9 -2 0
-12 -4 -23 -9z"/>
<path d="M5535 2470 c-3 -5 -1 -10 4 -10 6 0 11 5 11 10 0 6 -2 10 -4 10 -3 0
-8 -4 -11 -10z"/>
<path d="M6424 2355 c-18 -13 -18 -14 4 -8 12 3 25 9 28 14 8 14 -10 11 -32
-6z"/>
<path d="M3131 2124 c-18 -8 -31 -17 -29 -19 8 -9 78 16 73 26 -4 5 -7 9 -8 8
-1 0 -17 -7 -36 -15z"/>
<path d="M3359 2075 c-3 -2 -60 -9 -128 -14 -67 -5 -125 -11 -127 -14 -11 -11
8 -47 24 -47 41 0 273 64 260 71 -15 10 -23 11 -29 4z"/>
<path d="M2945 2006 c-27 -12 -62 -29 -77 -39 -14 -10 -34 -17 -44 -15 -11 2
-20 -4 -22 -16 -5 -21 -8 -22 131 15 83 23 87 25 87 51 0 33 -8 33 -75 4z"/>
<path d="M5850 2259 c-52 -4 -144 -8 -205 -10 -64 -1 -124 -8 -145 -16 -23 -9
-36 -10 -38 -3 -4 12 -80 12 -137 1 -22 -5 -35 -9 -30 -10 6 -1 48 -8 95 -17
116 -21 242 -40 455 -69 99 -14 227 -32 285 -41 143 -20 594 -73 637 -74 8 0
4 10 -9 25 -18 20 -28 24 -50 19 -22 -4 -36 1 -62 24 -19 16 -59 37 -90 47
-31 10 -59 22 -62 27 -10 16 27 20 44 5 24 -21 99 -46 122 -40 12 3 31 -5 50
-20 16 -14 44 -28 62 -32 18 -4 47 -13 64 -21 37 -16 164 -44 202 -44 40 0 59
15 43 33 -10 13 -9 17 6 26 12 6 15 13 8 19 -9 8 -123 39 -180 49 -11 2 -76
14 -145 27 -69 13 -128 22 -132 20 -4 -3 -15 0 -25 5 -17 9 -158 41 -177 41
-6 0 -1 -6 9 -14 23 -16 14 -46 -14 -46 -11 0 -25 8 -30 18 -6 11 -36 29 -67
41 -53 20 -57 20 -69 4 -11 -15 -15 -15 -29 -4 -9 7 -16 20 -16 28 0 12 -23
14 -137 11 -76 -2 -181 -6 -233 -9z m560 -109 c0 -5 -5 -10 -11 -10 -5 0 -7 5
-4 10 3 6 8 10 11 10 2 0 4 -4 4 -10z"/>
</g>
</svg>
