<svg width="95" height="56" viewBox="0 0 95 56" fill="none" xmlns="http://www.w3.org/2000/svg">
<path d="M7.256 34.306C6.80267 34.306 6.29267 34.2607 5.726 34.17C5.182 34.0793 4.66067 33.966 4.162 33.83C3.686 33.694 3.312 33.5467 3.04 33.388C2.88133 33.2973 2.75667 33.2067 2.666 33.116C2.598 33.0027 2.564 32.8213 2.564 32.572L2.394 27.234C2.394 26.7807 2.54133 26.554 2.836 26.554C3.08533 26.554 3.25533 26.758 3.346 27.166L3.652 28.458C4.42267 31.6993 5.862 33.32 7.97 33.32C9.10333 33.32 9.99867 32.946 10.656 32.198C11.336 31.4273 11.676 30.3507 11.676 28.968C11.676 27.6307 11.3247 26.384 10.622 25.228C9.942 24.072 8.84267 22.9273 7.324 21.794C5.64667 20.5927 4.42267 19.4367 3.652 18.326C2.88133 17.1927 2.496 15.9913 2.496 14.722C2.496 13.0447 3.074 11.7073 4.23 10.71C5.40867 9.69 6.90467 9.18 8.718 9.18C9.398 9.18 10.0553 9.25933 10.69 9.418C11.3247 9.57667 11.846 9.80333 12.254 10.098C12.39 10.1887 12.492 10.2907 12.56 10.404C12.6507 10.5173 12.696 10.6647 12.696 10.846L12.798 15.98C12.798 16.3653 12.6507 16.558 12.356 16.558C12.152 16.558 12.0047 16.3993 11.914 16.082L11.676 15.232C11.1773 13.4867 10.656 12.2173 10.112 11.424C9.59067 10.608 8.83133 10.2 7.834 10.2C6.85933 10.2 6.07733 10.5173 5.488 11.152C4.92133 11.7867 4.638 12.682 4.638 13.838C4.638 14.8127 4.95533 15.742 5.59 16.626C6.22467 17.51 7.33533 18.5867 8.922 19.856C10.622 21.2387 11.8573 22.576 12.628 23.868C13.4213 25.1373 13.818 26.4973 13.818 27.948C13.818 29.2173 13.5347 30.328 12.968 31.28C12.4013 32.232 11.6193 32.98 10.622 33.524C9.64733 34.0453 8.52533 34.306 7.256 34.306ZM21.3737 34.306C20.2857 34.306 19.311 33.9433 18.4497 33.218C17.5884 32.4927 16.897 31.4727 16.3757 30.158C15.877 28.8207 15.6277 27.2793 15.6277 25.534C15.6277 23.7433 15.8884 22.168 16.4097 20.808C16.931 19.448 17.645 18.3827 18.5517 17.612C19.4584 16.8413 20.467 16.456 21.5777 16.456C22.915 16.456 23.9917 17.0113 24.8077 18.122C25.6464 19.21 26.0657 20.9893 26.0657 23.46C26.0657 24.208 25.7824 24.582 25.2157 24.582H18.7557C18.3024 24.582 18.0757 24.8427 18.0757 25.364C18.0757 27.7667 18.427 29.5687 19.1297 30.77C19.8324 31.9713 20.7277 32.572 21.8157 32.572C22.677 32.572 23.3797 32.266 23.9237 31.654C24.4677 31.042 24.9097 30.0107 25.2497 28.56C25.3177 28.3107 25.465 28.186 25.6917 28.186C25.9637 28.186 26.0657 28.4127 25.9977 28.866C25.635 30.8833 25.057 32.3 24.2637 33.116C23.4704 33.9093 22.507 34.306 21.3737 34.306ZM18.6537 23.732H22.0877C23.1757 23.732 23.7197 23.1653 23.7197 22.032C23.7197 20.5587 23.5384 19.4027 23.1757 18.564C22.813 17.7253 22.269 17.306 21.5437 17.306C20.6597 17.306 19.9117 17.816 19.2997 18.836C18.7104 19.856 18.325 21.3067 18.1437 23.188C18.0984 23.5507 18.2684 23.732 18.6537 23.732ZM27.9516 34C27.6116 34 27.4416 33.8753 27.4416 33.626C27.4416 33.422 27.589 33.286 27.8836 33.218L28.2916 33.15C28.7676 33.0593 29.0736 32.9233 29.2096 32.742C29.3683 32.538 29.4476 32.198 29.4476 31.722V20.298C29.4476 19.89 29.3796 19.618 29.2436 19.482C29.1303 19.3233 28.915 19.2213 28.5976 19.176L27.8836 19.074C27.589 19.0513 27.4416 18.9267 27.4416 18.7C27.4416 18.5187 27.623 18.394 27.9856 18.326C28.6883 18.2127 29.221 18.0313 29.5836 17.782C29.969 17.5327 30.3656 17.2267 30.7736 16.864C30.9776 16.66 31.1476 16.558 31.2836 16.558C31.4876 16.558 31.5896 16.694 31.5896 16.966V18.496C31.5896 18.7 31.6576 18.836 31.7936 18.904C31.9523 18.9493 32.1223 18.8813 32.3036 18.7C33.2103 17.8387 34.0036 17.2493 34.6836 16.932C35.3863 16.6147 36.123 16.456 36.8936 16.456C37.9136 16.456 38.7296 16.8187 39.3416 17.544C39.9536 18.2467 40.2596 19.2893 40.2596 20.672V31.722C40.2596 32.198 40.3276 32.538 40.4636 32.742C40.6223 32.9233 40.9396 33.048 41.4156 33.116L42.1636 33.218C42.413 33.2633 42.5376 33.3993 42.5376 33.626C42.5376 33.8753 42.4016 34 42.1296 34H36.4176C36.1003 34 35.9416 33.8753 35.9416 33.626C35.9416 33.3993 36.0663 33.2633 36.3156 33.218L36.7916 33.15C37.2676 33.082 37.5736 32.946 37.7096 32.742C37.8683 32.538 37.9476 32.198 37.9476 31.722V21.046C37.9476 19.9353 37.7436 19.1533 37.3356 18.7C36.9276 18.2467 36.3496 18.02 35.6016 18.02C34.8763 18.02 34.219 18.2353 33.6296 18.666C33.063 19.074 32.6096 19.6293 32.2696 20.332C31.9296 21.012 31.7596 21.7713 31.7596 22.61V31.722C31.7596 32.198 31.8276 32.538 31.9636 32.742C32.1223 32.946 32.4396 33.0707 32.9156 33.116L33.8336 33.218C34.083 33.2633 34.2076 33.388 34.2076 33.592C34.2076 33.864 34.0376 34 33.6976 34H27.9516ZM47.9003 34.306C47.107 34.306 46.4497 34.034 45.9283 33.49C45.4297 32.9233 45.1803 32.0053 45.1803 30.736V18.02C45.1803 17.748 45.0443 17.612 44.7723 17.612H43.7863C43.4237 17.612 43.2423 17.476 43.2423 17.204C43.2423 17.0227 43.3443 16.864 43.5483 16.728C44.2963 16.2067 44.897 15.6513 45.3503 15.062C45.8037 14.45 46.2003 13.6227 46.5403 12.58C46.699 12.104 46.8917 11.866 47.1183 11.866C47.3677 11.866 47.4923 12.0473 47.4923 12.41V16.184C47.4923 16.5013 47.651 16.66 47.9683 16.66H50.1783C50.541 16.66 50.7223 16.8187 50.7223 17.136C50.7223 17.4533 50.541 17.612 50.1783 17.612H47.9683C47.651 17.612 47.4923 17.7707 47.4923 18.088V30.77C47.4923 31.2687 47.5717 31.6653 47.7303 31.96C47.889 32.232 48.1837 32.368 48.6143 32.368C49.0903 32.368 49.4757 32.13 49.7703 31.654C50.0877 31.178 50.2917 30.4073 50.3823 29.342C50.4277 29.0247 50.575 28.866 50.8243 28.866C51.0963 28.866 51.2323 29.036 51.2323 29.376C51.1643 31.1213 50.8017 32.3793 50.1443 33.15C49.5097 33.9207 48.7617 34.306 47.9003 34.306ZM55.5772 13.43C55.1012 13.43 54.6932 13.26 54.3532 12.92C54.0358 12.58 53.8772 12.1493 53.8772 11.628C53.8772 11.1067 54.0358 10.6873 54.3532 10.37C54.6932 10.03 55.1012 9.86 55.5772 9.86C56.0532 9.86 56.4498 10.03 56.7672 10.37C57.0845 10.6873 57.2432 11.1067 57.2432 11.628C57.2432 12.1493 57.0845 12.58 56.7672 12.92C56.4498 13.26 56.0532 13.43 55.5772 13.43ZM52.7212 34C52.3812 34 52.2112 33.8753 52.2112 33.626C52.2112 33.422 52.3585 33.286 52.6532 33.218L53.0612 33.15C53.6278 33.0593 53.9905 32.9233 54.1492 32.742C54.3078 32.538 54.3872 32.198 54.3872 31.722V20.298C54.3872 19.89 54.3192 19.618 54.1832 19.482C54.0698 19.3233 53.8545 19.2213 53.5372 19.176L52.8232 19.074C52.5285 19.0513 52.3812 18.9267 52.3812 18.7C52.3812 18.5187 52.5625 18.394 52.9252 18.326C53.6278 18.2127 54.1945 18.0313 54.6252 17.782C55.0558 17.5327 55.4752 17.2267 55.8832 16.864C56.0872 16.66 56.2572 16.558 56.3932 16.558C56.5972 16.558 56.6992 16.694 56.6992 16.966V31.722C56.6992 32.198 56.7672 32.538 56.9032 32.742C57.0392 32.946 57.2998 33.0707 57.6852 33.116L58.5352 33.218C58.7845 33.2633 58.9092 33.388 58.9092 33.592C58.9092 33.864 58.7392 34 58.3992 34H52.7212ZM60.2915 34C59.9515 34 59.7815 33.8753 59.7815 33.626C59.7815 33.422 59.9288 33.286 60.2235 33.218L60.6315 33.15C61.1075 33.0593 61.4135 32.9233 61.5495 32.742C61.7082 32.538 61.7875 32.198 61.7875 31.722V20.298C61.7875 19.89 61.7195 19.618 61.5835 19.482C61.4702 19.3233 61.2548 19.2213 60.9375 19.176L60.2235 19.074C59.9288 19.0513 59.7815 18.9267 59.7815 18.7C59.7815 18.5187 59.9628 18.394 60.3255 18.326C61.0282 18.2127 61.5608 18.0313 61.9235 17.782C62.3088 17.5327 62.7055 17.2267 63.1135 16.864C63.3175 16.66 63.4875 16.558 63.6235 16.558C63.8275 16.558 63.9295 16.694 63.9295 16.966V18.496C63.9295 18.7 63.9975 18.836 64.1335 18.904C64.2922 18.9493 64.4622 18.8813 64.6435 18.7C65.5502 17.8387 66.3435 17.2493 67.0235 16.932C67.7262 16.6147 68.4628 16.456 69.2335 16.456C70.2535 16.456 71.0695 16.8187 71.6815 17.544C72.2935 18.2467 72.5995 19.2893 72.5995 20.672V31.722C72.5995 32.198 72.6675 32.538 72.8035 32.742C72.9622 32.9233 73.2795 33.048 73.7555 33.116L74.5035 33.218C74.7528 33.2633 74.8775 33.3993 74.8775 33.626C74.8775 33.8753 74.7415 34 74.4695 34H68.7575C68.4402 34 68.2815 33.8753 68.2815 33.626C68.2815 33.3993 68.4062 33.2633 68.6555 33.218L69.1315 33.15C69.6075 33.082 69.9135 32.946 70.0495 32.742C70.2082 32.538 70.2875 32.198 70.2875 31.722V21.046C70.2875 19.9353 70.0835 19.1533 69.6755 18.7C69.2675 18.2467 68.6895 18.02 67.9415 18.02C67.2162 18.02 66.5588 18.2353 65.9695 18.666C65.4028 19.074 64.9495 19.6293 64.6095 20.332C64.2695 21.012 64.0995 21.7713 64.0995 22.61V31.722C64.0995 32.198 64.1675 32.538 64.3035 32.742C64.4622 32.946 64.7795 33.0707 65.2555 33.116L66.1735 33.218C66.4228 33.2633 66.5475 33.388 66.5475 33.592C66.5475 33.864 66.3775 34 66.0375 34H60.2915ZM81.7702 34.306C80.6822 34.306 79.7075 33.9433 78.8462 33.218C77.9849 32.4927 77.2935 31.4727 76.7722 30.158C76.2735 28.8207 76.0242 27.2793 76.0242 25.534C76.0242 23.7433 76.2849 22.168 76.8062 20.808C77.3275 19.448 78.0415 18.3827 78.9482 17.612C79.8549 16.8413 80.8635 16.456 81.9742 16.456C83.3115 16.456 84.3882 17.0113 85.2042 18.122C86.0429 19.21 86.4622 20.9893 86.4622 23.46C86.4622 24.208 86.1789 24.582 85.6122 24.582H79.1522C78.6989 24.582 78.4722 24.8427 78.4722 25.364C78.4722 27.7667 78.8235 29.5687 79.5262 30.77C80.2289 31.9713 81.1242 32.572 82.2122 32.572C83.0735 32.572 83.7762 32.266 84.3202 31.654C84.8642 31.042 85.3062 30.0107 85.6462 28.56C85.7142 28.3107 85.8615 28.186 86.0882 28.186C86.3602 28.186 86.4622 28.4127 86.3942 28.866C86.0315 30.8833 85.4535 32.3 84.6602 33.116C83.8669 33.9093 82.9035 34.306 81.7702 34.306ZM79.0502 23.732H82.4842C83.5722 23.732 84.1162 23.1653 84.1162 22.032C84.1162 20.5587 83.9349 19.4027 83.5722 18.564C83.2095 17.7253 82.6655 17.306 81.9402 17.306C81.0562 17.306 80.3082 17.816 79.6962 18.836C79.1069 19.856 78.7215 21.3067 78.5402 23.188C78.4949 23.5507 78.6649 23.732 79.0502 23.732ZM88.0081 34C87.7361 34 87.6001 33.8753 87.6001 33.626C87.6001 33.3993 87.7248 33.2633 87.9741 33.218L88.4501 33.15C88.9261 33.082 89.2775 32.946 89.5041 32.742C89.7308 32.538 89.8441 32.198 89.8441 31.722V12.24C89.8441 11.832 89.7761 11.5487 89.6401 11.39C89.5268 11.2313 89.3115 11.1407 88.9941 11.118L88.2121 11.016C87.9628 10.9707 87.8381 10.8347 87.8381 10.608C87.8381 10.3813 87.9628 10.2453 88.2121 10.2C88.8468 10.064 89.3908 9.90533 89.8441 9.724C90.2975 9.54266 90.6715 9.36133 90.9661 9.18C91.3288 8.95333 91.6008 8.84 91.7821 8.84C92.0315 8.84 92.1561 9.02133 92.1561 9.384V31.722C92.1561 32.198 92.2241 32.538 92.3601 32.742C92.5188 32.9233 92.8361 33.048 93.3121 33.116L94.0941 33.218C94.3435 33.2633 94.4681 33.3993 94.4681 33.626C94.4681 33.8753 94.3321 34 94.0601 34H88.0081Z" fill="white"/>
<path d="M0.391 52C0.276 52 0.2185 51.9578 0.2185 51.8735C0.2185 51.8045 0.268333 51.7585 0.368 51.7355L0.6325 51.6895C0.7935 51.6588 0.897 51.6167 0.943 51.563C0.996667 51.5093 1.0235 51.402 1.0235 51.241V44.479C1.0235 44.318 0.996667 44.2107 0.943 44.157C0.897 44.1033 0.7935 44.0612 0.6325 44.0305L0.368 43.9845C0.268333 43.9615 0.2185 43.9155 0.2185 43.8465C0.2185 43.7622 0.276 43.72 0.391 43.72H2.7945C3.24683 43.72 3.6455 43.8197 3.9905 44.019C4.3355 44.2107 4.60383 44.479 4.7955 44.824C4.98717 45.169 5.083 45.5677 5.083 46.02C5.083 46.457 4.98717 46.8442 4.7955 47.1815C4.60383 47.5188 4.33933 47.7833 4.002 47.975C3.66467 48.159 3.27367 48.251 2.829 48.251H2.001C1.89367 48.251 1.84 48.3047 1.84 48.412V51.195C1.84 51.356 1.87067 51.4672 1.932 51.5285C1.99333 51.5822 2.13133 51.6282 2.346 51.6665L2.7715 51.7355C2.85583 51.7508 2.898 51.793 2.898 51.862C2.898 51.954 2.8405 52 2.7255 52H0.391ZM1.84 47.331C1.84 47.7527 2.09683 47.9635 2.6105 47.9635C3.10883 47.9635 3.49983 47.7872 3.7835 47.4345C4.07483 47.0818 4.2205 46.5988 4.2205 45.9855C4.2205 45.3568 4.07483 44.87 3.7835 44.525C3.49217 44.18 3.07817 44.0075 2.5415 44.0075C2.07383 44.0075 1.84 44.1608 1.84 44.4675V47.331ZM7.32343 52.1035C7.13177 52.1035 6.94777 52.0613 6.77143 51.977C6.5951 51.8927 6.44943 51.7585 6.33443 51.5745C6.21943 51.3905 6.16193 51.1452 6.16193 50.8385V46.8365C6.16193 46.6985 6.13893 46.6027 6.09293 46.549C6.0546 46.4953 5.98177 46.4647 5.87443 46.457L5.67893 46.434C5.5486 46.4187 5.48343 46.3688 5.48343 46.2845C5.48343 46.1848 5.55627 46.135 5.70193 46.135H6.77143C6.88643 46.135 6.94393 46.1925 6.94393 46.3075V50.597C6.94393 50.9497 7.0091 51.2027 7.13943 51.356C7.27743 51.5017 7.46527 51.5745 7.70293 51.5745C7.9406 51.5745 8.15143 51.5093 8.33543 51.379C8.51943 51.241 8.6651 51.0608 8.77243 50.8385C8.88743 50.6085 8.94493 50.3593 8.94493 50.091V46.8365C8.94493 46.6985 8.92193 46.6027 8.87593 46.549C8.8376 46.4953 8.76477 46.4647 8.65743 46.457L8.46193 46.434C8.3316 46.4187 8.26643 46.3688 8.26643 46.2845C8.26643 46.1848 8.33927 46.135 8.48493 46.135H9.55443C9.66943 46.135 9.72693 46.1925 9.72693 46.3075V50.7695C9.72693 50.9075 9.7461 51.0033 9.78443 51.057C9.83043 51.103 9.9071 51.1337 10.0144 51.149L10.2559 51.1835C10.3556 51.1912 10.4054 51.2295 10.4054 51.2985C10.4054 51.3675 10.3441 51.4135 10.2214 51.4365C9.98377 51.4672 9.7921 51.5285 9.64643 51.6205C9.50843 51.7125 9.38577 51.8237 9.27843 51.954C9.20943 52.023 9.15193 52.0575 9.10593 52.0575C9.03693 52.0575 9.00243 52.0115 9.00243 51.9195V51.3905C9.00243 51.3292 8.97943 51.2947 8.93343 51.287C8.8951 51.2717 8.85293 51.287 8.80693 51.333C8.52327 51.6167 8.27027 51.816 8.04793 51.931C7.83327 52.046 7.59177 52.1035 7.32343 52.1035ZM12.9481 52.1035C12.6338 52.1035 12.3309 52.0038 12.0396 51.8045C11.8709 51.6895 11.7176 51.7202 11.5796 51.8965C11.5029 51.9808 11.4454 52.0345 11.4071 52.0575C11.3688 52.0882 11.3304 52.1035 11.2921 52.1035C11.2078 52.1035 11.1771 52.0498 11.2001 51.9425C11.2308 51.7662 11.2538 51.54 11.2691 51.264C11.2844 50.988 11.2921 50.62 11.2921 50.16V44.64C11.2921 44.502 11.2691 44.41 11.2231 44.364C11.1848 44.3103 11.1119 44.2758 11.0046 44.2605L10.7631 44.226C10.6788 44.2107 10.6366 44.1647 10.6366 44.088C10.6366 44.0113 10.6788 43.9653 10.7631 43.95C10.9778 43.904 11.1579 43.8503 11.3036 43.789C11.4493 43.7277 11.5719 43.6663 11.6716 43.605C11.7943 43.5283 11.8863 43.49 11.9476 43.49C12.0319 43.49 12.0741 43.5513 12.0741 43.674V46.5145C12.0741 46.5758 12.0971 46.618 12.1431 46.641C12.1968 46.6563 12.2543 46.6333 12.3156 46.572C12.6453 46.2347 13.0056 46.066 13.3966 46.066C13.7493 46.066 14.0598 46.1848 14.3281 46.4225C14.6041 46.6525 14.8188 46.9745 14.9721 47.3885C15.1331 47.8025 15.2136 48.2893 15.2136 48.849C15.2136 49.4853 15.1139 50.0488 14.9146 50.5395C14.7153 51.0302 14.4431 51.4135 14.0981 51.6895C13.7608 51.9655 13.3774 52.1035 12.9481 52.1035ZM12.9251 51.816C13.3544 51.816 13.6994 51.563 13.9601 51.057C14.2284 50.551 14.3626 49.8687 14.3626 49.01C14.3626 48.2203 14.2476 47.6185 14.0176 47.2045C13.7876 46.7905 13.4618 46.5835 13.0401 46.5835C12.7794 46.5835 12.5533 46.6908 12.3616 46.9055C12.1699 47.1202 12.0741 47.4192 12.0741 47.8025V50.7005C12.0741 51.0455 12.1508 51.3177 12.3041 51.517C12.4651 51.7163 12.6721 51.816 12.9251 51.816ZM15.9077 52C15.8157 52 15.7697 51.9578 15.7697 51.8735C15.7697 51.7968 15.8119 51.7508 15.8962 51.7355L16.0572 51.7125C16.2182 51.6895 16.3371 51.6435 16.4137 51.5745C16.4904 51.5055 16.5287 51.3905 16.5287 51.2295V44.64C16.5287 44.502 16.5057 44.4062 16.4597 44.3525C16.4214 44.2988 16.3486 44.2682 16.2412 44.2605L15.9767 44.226C15.8924 44.2107 15.8502 44.1647 15.8502 44.088C15.8502 44.0113 15.8924 43.9653 15.9767 43.95C16.1914 43.904 16.3754 43.8503 16.5287 43.789C16.6821 43.7277 16.8086 43.6663 16.9082 43.605C17.0309 43.5283 17.1229 43.49 17.1842 43.49C17.2686 43.49 17.3107 43.5513 17.3107 43.674V51.2295C17.3107 51.3905 17.3337 51.5055 17.3797 51.5745C17.4334 51.6358 17.5407 51.678 17.7017 51.701L17.9662 51.7355C18.0506 51.7508 18.0927 51.7968 18.0927 51.8735C18.0927 51.9578 18.0467 52 17.9547 52H15.9077ZM19.5156 45.0425C19.3546 45.0425 19.2166 44.985 19.1016 44.87C18.9943 44.755 18.9406 44.6093 18.9406 44.433C18.9406 44.2567 18.9943 44.1148 19.1016 44.0075C19.2166 43.8925 19.3546 43.835 19.5156 43.835C19.6766 43.835 19.8108 43.8925 19.9181 44.0075C20.0254 44.1148 20.0791 44.2567 20.0791 44.433C20.0791 44.6093 20.0254 44.755 19.9181 44.87C19.8108 44.985 19.6766 45.0425 19.5156 45.0425ZM18.5496 52C18.4346 52 18.3771 51.9578 18.3771 51.8735C18.3771 51.8045 18.4269 51.7585 18.5266 51.7355L18.6646 51.7125C18.8563 51.6818 18.9789 51.6358 19.0326 51.5745C19.0863 51.5055 19.1131 51.3905 19.1131 51.2295V47.3655C19.1131 47.2275 19.0901 47.1355 19.0441 47.0895C19.0058 47.0358 18.9329 47.0013 18.8256 46.986L18.5841 46.9515C18.4844 46.9438 18.4346 46.9017 18.4346 46.825C18.4346 46.7637 18.4959 46.7215 18.6186 46.6985C18.8563 46.6602 19.0479 46.5988 19.1936 46.5145C19.3393 46.4302 19.4811 46.3267 19.6191 46.204C19.6881 46.135 19.7456 46.1005 19.7916 46.1005C19.8606 46.1005 19.8951 46.1465 19.8951 46.2385V51.2295C19.8951 51.3905 19.9181 51.5055 19.9641 51.5745C20.0101 51.6435 20.0983 51.6857 20.2286 51.701L20.5161 51.7355C20.6004 51.7508 20.6426 51.793 20.6426 51.862C20.6426 51.954 20.5851 52 20.4701 52H18.5496ZM22.8351 52.1035C22.4978 52.1035 22.1911 51.9923 21.9151 51.77C21.6468 51.54 21.4321 51.2142 21.2711 50.7925C21.1101 50.3708 21.0296 49.8687 21.0296 49.286C21.0296 48.6343 21.1255 48.067 21.3171 47.584C21.5165 47.101 21.7848 46.7292 22.1221 46.4685C22.4595 46.2002 22.8351 46.066 23.2491 46.066C23.6018 46.066 23.8778 46.135 24.0771 46.273C24.1538 46.3267 24.1921 46.411 24.1921 46.526L24.2151 47.929C24.2151 48.044 24.1691 48.1015 24.0771 48.1015C23.9928 48.1015 23.9391 48.0517 23.9161 47.952C23.8088 47.5303 23.7053 47.2045 23.6056 46.9745C23.506 46.7445 23.4025 46.5873 23.2951 46.503C23.1878 46.411 23.069 46.365 22.9386 46.365C22.7853 46.365 22.6243 46.4532 22.4556 46.6295C22.2946 46.8058 22.1566 47.0933 22.0416 47.492C21.9343 47.883 21.8806 48.4005 21.8806 49.0445C21.8806 49.8648 21.9841 50.482 22.1911 50.896C22.4058 51.31 22.6818 51.517 23.0191 51.517C23.2875 51.517 23.5098 51.4058 23.6861 51.1835C23.8701 50.9612 24.0273 50.5587 24.1576 49.976C24.1806 49.8917 24.2266 49.8495 24.2956 49.8495C24.3876 49.8495 24.4221 49.9262 24.3991 50.0795C24.3148 50.6162 24.196 51.034 24.0426 51.333C23.897 51.6243 23.7206 51.8275 23.5136 51.9425C23.3143 52.0498 23.0881 52.1035 22.8351 52.1035ZM28.7322 52.1035C28.5789 52.1035 28.4064 52.0882 28.2147 52.0575C28.0307 52.0268 27.8544 51.9885 27.6857 51.9425C27.5247 51.8965 27.3982 51.8467 27.3062 51.793C27.2525 51.7623 27.2104 51.7317 27.1797 51.701C27.1567 51.6627 27.1452 51.6013 27.1452 51.517L27.0877 49.7115C27.0877 49.5582 27.1375 49.4815 27.2372 49.4815C27.3215 49.4815 27.379 49.5505 27.4097 49.6885L27.5132 50.1255C27.7739 51.2218 28.2607 51.77 28.9737 51.77C29.357 51.77 29.6599 51.6435 29.8822 51.3905C30.1122 51.1298 30.2272 50.7657 30.2272 50.298C30.2272 49.8457 30.1084 49.424 29.8707 49.033C29.6407 48.642 29.2689 48.2548 28.7552 47.8715C28.1879 47.4652 27.7739 47.0742 27.5132 46.6985C27.2525 46.3152 27.1222 45.9088 27.1222 45.4795C27.1222 44.9122 27.3177 44.4598 27.7087 44.1225C28.1074 43.7775 28.6134 43.605 29.2267 43.605C29.4567 43.605 29.679 43.6318 29.8937 43.6855C30.1084 43.7392 30.2847 43.8158 30.4227 43.9155C30.4687 43.9462 30.5032 43.9807 30.5262 44.019C30.5569 44.0573 30.5722 44.1072 30.5722 44.1685L30.6067 45.905C30.6067 46.0353 30.5569 46.1005 30.4572 46.1005C30.3882 46.1005 30.3384 46.0468 30.3077 45.9395L30.2272 45.652C30.0585 45.0617 29.8822 44.6323 29.6982 44.364C29.5219 44.088 29.265 43.95 28.9277 43.95C28.598 43.95 28.3335 44.0573 28.1342 44.272C27.9425 44.4867 27.8467 44.7895 27.8467 45.1805C27.8467 45.5102 27.954 45.8245 28.1687 46.1235C28.3834 46.4225 28.759 46.7867 29.2957 47.216C29.8707 47.6837 30.2885 48.136 30.5492 48.573C30.8175 49.0023 30.9517 49.4623 30.9517 49.953C30.9517 50.3823 30.8559 50.758 30.6642 51.08C30.4725 51.402 30.208 51.655 29.8707 51.839C29.541 52.0153 29.1615 52.1035 28.7322 52.1035ZM32.6793 52.1035C32.3573 52.1035 32.0928 52.0038 31.8858 51.8045C31.6788 51.5975 31.5753 51.3253 31.5753 50.988C31.5753 50.6583 31.6788 50.3478 31.8858 50.0565C32.0928 49.7575 32.3765 49.4892 32.7368 49.2515C33.0971 49.0138 33.5073 48.8222 33.9673 48.6765C34.067 48.6458 34.1168 48.5807 34.1168 48.481V47.4345C34.1168 47.0665 34.0593 46.8058 33.9443 46.6525C33.8293 46.4915 33.6721 46.411 33.4728 46.411C33.2811 46.411 33.1048 46.4992 32.9438 46.6755C32.7905 46.8442 32.6793 47.1317 32.6103 47.538C32.572 47.7833 32.4876 47.9635 32.3573 48.0785C32.2346 48.1858 32.1081 48.2395 31.9778 48.2395C31.7631 48.2395 31.6558 48.1322 31.6558 47.9175C31.6558 47.6952 31.7171 47.4767 31.8398 47.262C31.9701 47.0397 32.1388 46.8403 32.3458 46.664C32.5528 46.48 32.779 46.3343 33.0243 46.227C33.2696 46.1197 33.515 46.066 33.7603 46.066C34.5193 46.066 34.8988 46.5068 34.8988 47.3885V50.9075C34.8988 51.2295 34.9793 51.3905 35.1403 51.3905C35.24 51.3905 35.332 51.3253 35.4163 51.195C35.5006 51.057 35.5428 50.827 35.5428 50.505C35.5428 50.3823 35.5926 50.321 35.6923 50.321C35.7843 50.321 35.8303 50.3862 35.8303 50.5165C35.8303 51.0762 35.7307 51.4825 35.5313 51.7355C35.3397 51.9808 35.1212 52.1035 34.8758 52.1035C34.6918 52.1035 34.5461 52.0307 34.4388 51.885C34.3315 51.7317 34.2586 51.5515 34.2203 51.3445C34.2126 51.2678 34.1781 51.2295 34.1168 51.2295C34.0631 51.2218 34.0095 51.2563 33.9558 51.333C33.7718 51.586 33.584 51.7777 33.3923 51.908C33.2006 52.0383 32.963 52.1035 32.6793 52.1035ZM32.9898 51.5745C33.1891 51.5745 33.3731 51.5055 33.5418 51.3675C33.7105 51.2218 33.8485 51.0302 33.9558 50.7925C34.0631 50.5548 34.1168 50.2865 34.1168 49.9875V49.148C34.1168 49.0023 34.0363 48.9602 33.8753 49.0215C33.4076 49.1902 33.0435 49.424 32.7828 49.723C32.5298 50.0143 32.4033 50.367 32.4033 50.781C32.4033 51.31 32.5988 51.5745 32.9898 51.5745ZM36.8701 51.2295V46.733C36.8701 46.549 36.7781 46.457 36.5941 46.457H36.3296C36.2376 46.457 36.1916 46.4187 36.1916 46.342C36.1916 46.2653 36.2376 46.2232 36.3296 46.2155C36.6899 46.1772 36.8701 46.02 36.8701 45.744V45.675C36.8701 45.2763 36.9276 44.9045 37.0426 44.5595C37.1652 44.2145 37.3377 43.9347 37.5601 43.72C37.7901 43.5053 38.0699 43.398 38.3996 43.398C38.7062 43.398 38.9631 43.4862 39.1701 43.6625C39.3771 43.8388 39.4806 44.0497 39.4806 44.295C39.4806 44.4407 39.4422 44.5518 39.3656 44.6285C39.2966 44.6975 39.2007 44.732 39.0781 44.732C38.9247 44.732 38.8136 44.6822 38.7446 44.5825C38.6832 44.4828 38.6334 44.3717 38.5951 44.249C38.5567 44.1187 38.5069 44.0037 38.4456 43.904C38.3919 43.8043 38.2922 43.7545 38.1466 43.7545C37.9932 43.7545 37.8706 43.8427 37.7786 44.019C37.6942 44.1877 37.6521 44.5097 37.6521 44.985V45.997C37.6521 46.089 37.6981 46.135 37.7901 46.135H38.7791C38.8941 46.135 38.9516 46.1887 38.9516 46.296C38.9516 46.4033 38.8941 46.457 38.7791 46.457H37.7901C37.6981 46.457 37.6521 46.503 37.6521 46.595V51.2295C37.6521 51.3905 37.6751 51.5017 37.7211 51.563C37.7747 51.6243 37.8821 51.6627 38.0431 51.678L38.6526 51.7355C38.7369 51.7508 38.7791 51.793 38.7791 51.862C38.7791 51.954 38.7216 52 38.6066 52H36.2146C36.0996 52 36.0421 51.9578 36.0421 51.8735C36.0421 51.7892 36.0919 51.7432 36.1916 51.7355L36.4791 51.7125C36.6401 51.6972 36.7436 51.655 36.7896 51.586C36.8432 51.5093 36.8701 51.3905 36.8701 51.2295ZM41.0654 52.1035C40.6974 52.1035 40.3678 51.9808 40.0764 51.7355C39.7851 51.4902 39.5513 51.1452 39.3749 50.7005C39.2063 50.2482 39.1219 49.7268 39.1219 49.1365C39.1219 48.5308 39.2101 47.998 39.3864 47.538C39.5628 47.078 39.8043 46.7177 40.1109 46.457C40.4176 46.1963 40.7588 46.066 41.1344 46.066C41.5868 46.066 41.9509 46.2538 42.2269 46.6295C42.5106 46.9975 42.6524 47.5993 42.6524 48.435C42.6524 48.688 42.5566 48.8145 42.3649 48.8145H40.1799C40.0266 48.8145 39.9499 48.9027 39.9499 49.079C39.9499 49.8917 40.0688 50.5012 40.3064 50.9075C40.5441 51.3138 40.8469 51.517 41.2149 51.517C41.5063 51.517 41.7439 51.4135 41.9279 51.2065C42.1119 50.9995 42.2614 50.6507 42.3764 50.16C42.3994 50.0757 42.4493 50.0335 42.5259 50.0335C42.6179 50.0335 42.6524 50.1102 42.6294 50.2635C42.5068 50.9458 42.3113 51.425 42.0429 51.701C41.7746 51.9693 41.4488 52.1035 41.0654 52.1035ZM40.1454 48.527H41.3069C41.6749 48.527 41.8589 48.3353 41.8589 47.952C41.8589 47.4537 41.7976 47.0627 41.6749 46.779C41.5523 46.4953 41.3683 46.3535 41.1229 46.3535C40.8239 46.3535 40.5709 46.526 40.3639 46.871C40.1646 47.216 40.0343 47.7067 39.9729 48.343C39.9576 48.4657 40.0151 48.527 40.1454 48.527ZM44.6358 52.1035C44.3675 52.1035 44.1451 52.0115 43.9688 51.8275C43.8001 51.6358 43.7158 51.3253 43.7158 50.896V46.595C43.7158 46.503 43.6698 46.457 43.5778 46.457H43.2443C43.1216 46.457 43.0603 46.411 43.0603 46.319C43.0603 46.2577 43.0948 46.204 43.1638 46.158C43.4168 45.9817 43.62 45.7938 43.7733 45.5945C43.9266 45.3875 44.0608 45.1077 44.1758 44.755C44.2295 44.594 44.2946 44.5135 44.3713 44.5135C44.4556 44.5135 44.4978 44.5748 44.4978 44.6975V45.974C44.4978 46.0813 44.5515 46.135 44.6588 46.135H45.4063C45.529 46.135 45.5903 46.1887 45.5903 46.296C45.5903 46.4033 45.529 46.457 45.4063 46.457H44.6588C44.5515 46.457 44.4978 46.5107 44.4978 46.618V50.9075C44.4978 51.0762 44.5246 51.2103 44.5783 51.31C44.632 51.402 44.7316 51.448 44.8773 51.448C45.0383 51.448 45.1686 51.3675 45.2683 51.2065C45.3756 51.0455 45.4446 50.7848 45.4753 50.4245C45.4906 50.3172 45.5405 50.2635 45.6248 50.2635C45.7168 50.2635 45.7628 50.321 45.7628 50.436C45.7398 51.0263 45.6171 51.4518 45.3948 51.7125C45.1801 51.9732 44.9271 52.1035 44.6358 52.1035ZM46.6513 54.3575C46.4443 54.3575 46.2794 54.2847 46.1568 54.139C46.0341 54.001 45.9728 53.84 45.9728 53.656C45.9728 53.5103 46.0149 53.3877 46.0993 53.288C46.1836 53.1883 46.2986 53.1385 46.4443 53.1385C46.5669 53.1385 46.6551 53.1653 46.7088 53.219C46.7624 53.2727 46.8008 53.334 46.8238 53.403C46.8468 53.472 46.8698 53.5333 46.8928 53.587C46.9158 53.6407 46.9618 53.6675 47.0308 53.6675C47.1151 53.6675 47.1918 53.6062 47.2608 53.4835C47.3298 53.3685 47.4256 53.1193 47.5483 52.736C47.6249 52.506 47.6709 52.3067 47.6863 52.138C47.7093 51.9693 47.7054 51.7892 47.6748 51.5975C47.6518 51.4058 47.5943 51.172 47.5023 50.896L46.2488 46.9055C46.1951 46.7215 46.1414 46.6027 46.0878 46.549C46.0418 46.4953 45.9651 46.457 45.8578 46.434L45.6853 46.3995C45.5856 46.3765 45.5358 46.3267 45.5358 46.25C45.5358 46.1733 45.5894 46.135 45.6968 46.135H47.5943C47.7016 46.135 47.7553 46.1733 47.7553 46.25C47.7553 46.3343 47.7054 46.3842 47.6058 46.3995L47.4218 46.4225C47.2378 46.4455 47.1189 46.4915 47.0653 46.5605C47.0193 46.6218 47.0231 46.7368 47.0768 46.9055L48.0888 50.275C48.1118 50.3517 48.1463 50.39 48.1923 50.39C48.2459 50.39 48.2843 50.3517 48.3073 50.275L49.2848 47.1125C49.3461 46.9055 49.3614 46.7522 49.3308 46.6525C49.3078 46.5452 49.2004 46.4762 49.0088 46.4455L48.7673 46.3995C48.6676 46.3765 48.6178 46.3267 48.6178 46.25C48.6178 46.1733 48.6714 46.135 48.7788 46.135H50.2393C50.3466 46.135 50.4003 46.1772 50.4003 46.2615C50.4003 46.3382 50.3543 46.3918 50.2623 46.4225L50.1588 46.457C50.0438 46.4953 49.9479 46.5643 49.8713 46.664C49.7946 46.7637 49.7141 46.9362 49.6298 47.1815L47.9163 52.529C47.7476 53.0657 47.5943 53.4643 47.4563 53.725C47.3259 53.9857 47.1994 54.1543 47.0768 54.231C46.9541 54.3153 46.8123 54.3575 46.6513 54.3575ZM55.5556 52.1035C54.9883 52.1035 54.4899 51.9272 54.0606 51.5745C53.6389 51.2218 53.3093 50.7273 53.0716 50.091C52.8416 49.447 52.7266 48.688 52.7266 47.814C52.7266 46.9707 52.8531 46.2347 53.1061 45.606C53.3668 44.9697 53.7118 44.479 54.1411 44.134C54.5781 43.7813 55.0611 43.605 55.5901 43.605C55.9044 43.605 56.1804 43.6357 56.4181 43.697C56.6558 43.7507 56.8666 43.8235 57.0506 43.9155C57.1426 43.9692 57.1886 44.0497 57.1886 44.157L57.2231 45.905C57.2231 46.0353 57.1771 46.1005 57.0851 46.1005C57.0008 46.1005 56.9471 46.0507 56.9241 45.951L56.8091 45.5255C56.6481 44.9275 56.4603 44.5135 56.2456 44.2835C56.0386 44.0535 55.7894 43.9385 55.4981 43.9385C54.9614 43.9385 54.5129 44.272 54.1526 44.939C53.7999 45.5983 53.6236 46.5567 53.6236 47.814C53.6236 48.6727 53.7118 49.3972 53.8881 49.9875C54.0721 50.5778 54.3059 51.0225 54.5896 51.3215C54.8809 51.6205 55.1876 51.77 55.5096 51.77C55.8546 51.77 56.1306 51.6627 56.3376 51.448C56.5523 51.2333 56.7324 50.8193 56.8781 50.206L57.0161 49.6425C57.0391 49.5275 57.1004 49.4777 57.2001 49.493C57.2844 49.5083 57.3266 49.5735 57.3266 49.6885L57.2806 51.5515C57.2806 51.6588 57.2308 51.7393 57.1311 51.793C56.9471 51.885 56.7286 51.9578 56.4756 52.0115C56.2303 52.0728 55.9236 52.1035 55.5556 52.1035ZM60.1265 52.1035C59.7355 52.1035 59.3828 51.9732 59.0685 51.7125C58.7618 51.4442 58.5165 51.08 58.3325 50.62C58.1485 50.16 58.0565 49.6463 58.0565 49.079C58.0565 48.5117 58.1485 48.0018 58.3325 47.5495C58.5165 47.0972 58.7657 46.7368 59.08 46.4685C59.3943 46.2002 59.7432 46.066 60.1265 46.066C60.5175 46.066 60.8663 46.2002 61.173 46.4685C61.4873 46.7368 61.7365 47.0972 61.9205 47.5495C62.1045 48.0018 62.1965 48.5117 62.1965 49.079C62.1965 49.6463 62.1045 50.16 61.9205 50.62C61.7442 51.08 61.4988 51.4442 61.1845 51.7125C60.8702 51.9732 60.5175 52.1035 60.1265 52.1035ZM60.1265 51.816C60.9238 51.816 61.3225 50.9037 61.3225 49.079C61.3225 47.262 60.9238 46.3535 60.1265 46.3535C59.3292 46.3535 58.9305 47.262 58.9305 49.079C58.9305 50.9037 59.3292 51.816 60.1265 51.816ZM62.8313 52C62.7163 52 62.6588 51.9578 62.6588 51.8735C62.6588 51.8045 62.7087 51.7585 62.8083 51.7355L62.9463 51.7125C63.1073 51.6818 63.2108 51.6358 63.2568 51.5745C63.3105 51.5055 63.3373 51.3905 63.3373 51.2295V47.3655C63.3373 47.2275 63.3143 47.1355 63.2683 47.0895C63.23 47.0358 63.1572 47.0013 63.0498 46.986L62.8083 46.9515C62.7087 46.9438 62.6588 46.9017 62.6588 46.825C62.6588 46.7637 62.7202 46.7215 62.8428 46.6985C63.0805 46.6602 63.2607 46.5988 63.3833 46.5145C63.5137 46.4302 63.6478 46.3267 63.7858 46.204C63.8548 46.135 63.9123 46.1005 63.9583 46.1005C64.0273 46.1005 64.0618 46.1465 64.0618 46.2385V46.756C64.0618 46.825 64.0848 46.871 64.1308 46.894C64.1845 46.9093 64.242 46.8863 64.3033 46.825C64.61 46.5337 64.8783 46.3343 65.1083 46.227C65.346 46.1197 65.5952 46.066 65.8558 46.066C66.2008 46.066 66.4768 46.1887 66.6838 46.434C66.8908 46.6717 66.9943 47.0243 66.9943 47.492V51.2295C66.9943 51.3905 67.0173 51.5055 67.0633 51.5745C67.117 51.6358 67.2243 51.678 67.3853 51.701L67.6383 51.7355C67.7227 51.7508 67.7648 51.7968 67.7648 51.8735C67.7648 51.9578 67.7188 52 67.6268 52H65.6948C65.5875 52 65.5338 51.9578 65.5338 51.8735C65.5338 51.7968 65.576 51.7508 65.6603 51.7355L65.8213 51.7125C65.9823 51.6895 66.0858 51.6435 66.1318 51.5745C66.1855 51.5055 66.2123 51.3905 66.2123 51.2295V47.6185C66.2123 47.2428 66.1433 46.9783 66.0053 46.825C65.8673 46.6717 65.6718 46.595 65.4188 46.595C65.1735 46.595 64.9512 46.6678 64.7518 46.8135C64.5602 46.9515 64.4068 47.1393 64.2918 47.377C64.1768 47.607 64.1193 47.8638 64.1193 48.1475V51.2295C64.1193 51.3905 64.1423 51.5055 64.1883 51.5745C64.242 51.6435 64.3493 51.6857 64.5103 51.701L64.8208 51.7355C64.9052 51.7508 64.9473 51.793 64.9473 51.862C64.9473 51.954 64.8898 52 64.7748 52H62.8313ZM69.3947 52.1035C69.2184 52.1035 69.0305 52.0805 68.8312 52.0345C68.6319 51.9962 68.4709 51.9463 68.3482 51.885C68.2792 51.8467 68.2447 51.7815 68.2447 51.6895L68.2102 50.4015C68.2102 50.2712 68.26 50.206 68.3597 50.206C68.444 50.206 68.5015 50.2673 68.5322 50.39C68.6625 50.9343 68.8197 51.3062 69.0037 51.5055C69.1954 51.7048 69.4254 51.8045 69.6937 51.8045C69.916 51.8045 70.1 51.7202 70.2457 51.5515C70.3914 51.3752 70.4642 51.1337 70.4642 50.827C70.4642 50.5203 70.3799 50.2482 70.2112 50.0105C70.0425 49.7728 69.7589 49.5122 69.3602 49.2285C68.9615 48.9602 68.6702 48.6918 68.4862 48.4235C68.3022 48.1475 68.2102 47.8485 68.2102 47.5265C68.2102 47.0895 68.3635 46.7368 68.6702 46.4685C68.9769 46.2002 69.3832 46.066 69.8892 46.066C70.0425 46.066 70.192 46.0852 70.3377 46.1235C70.4834 46.1542 70.6137 46.2078 70.7287 46.2845C70.7977 46.3305 70.8322 46.3918 70.8322 46.4685L70.8552 47.7335C70.8552 47.8485 70.8092 47.906 70.7172 47.906C70.6635 47.906 70.6252 47.8907 70.6022 47.86C70.5792 47.8217 70.56 47.7757 70.5447 47.722C70.3914 47.2237 70.238 46.8787 70.0847 46.687C69.9314 46.4877 69.7435 46.388 69.5212 46.388C69.3219 46.388 69.157 46.457 69.0267 46.595C68.8964 46.733 68.8312 46.9055 68.8312 47.1125C68.8312 47.3808 68.9117 47.6147 69.0727 47.814C69.2337 48.0133 69.525 48.2587 69.9467 48.55C70.33 48.826 70.6175 49.125 70.8092 49.447C71.0085 49.7613 71.1082 50.1063 71.1082 50.482C71.1082 50.9727 70.951 51.3675 70.6367 51.6665C70.3224 51.9578 69.9084 52.1035 69.3947 52.1035ZM73.3923 52.1035C73.2006 52.1035 73.0166 52.0613 72.8403 51.977C72.6639 51.8927 72.5183 51.7585 72.4033 51.5745C72.2883 51.3905 72.2308 51.1452 72.2308 50.8385V46.8365C72.2308 46.6985 72.2078 46.6027 72.1618 46.549C72.1234 46.4953 72.0506 46.4647 71.9433 46.457L71.7478 46.434C71.6174 46.4187 71.5523 46.3688 71.5523 46.2845C71.5523 46.1848 71.6251 46.135 71.7708 46.135H72.8403C72.9553 46.135 73.0128 46.1925 73.0128 46.3075V50.597C73.0128 50.9497 73.0779 51.2027 73.2083 51.356C73.3463 51.5017 73.5341 51.5745 73.7718 51.5745C74.0094 51.5745 74.2203 51.5093 74.4043 51.379C74.5883 51.241 74.7339 51.0608 74.8413 50.8385C74.9563 50.6085 75.0138 50.3593 75.0138 50.091V46.8365C75.0138 46.6985 74.9908 46.6027 74.9448 46.549C74.9064 46.4953 74.8336 46.4647 74.7263 46.457L74.5308 46.434C74.4004 46.4187 74.3353 46.3688 74.3353 46.2845C74.3353 46.1848 74.4081 46.135 74.5538 46.135H75.6233C75.7383 46.135 75.7958 46.1925 75.7958 46.3075V50.7695C75.7958 50.9075 75.8149 51.0033 75.8533 51.057C75.8993 51.103 75.9759 51.1337 76.0833 51.149L76.3248 51.1835C76.4244 51.1912 76.4743 51.2295 76.4743 51.2985C76.4743 51.3675 76.4129 51.4135 76.2903 51.4365C76.0526 51.4672 75.8609 51.5285 75.7153 51.6205C75.5773 51.7125 75.4546 51.8237 75.3473 51.954C75.2783 52.023 75.2208 52.0575 75.1748 52.0575C75.1058 52.0575 75.0713 52.0115 75.0713 51.9195V51.3905C75.0713 51.3292 75.0483 51.2947 75.0023 51.287C74.9639 51.2717 74.9218 51.287 74.8758 51.333C74.5921 51.6167 74.3391 51.816 74.1168 51.931C73.9021 52.046 73.6606 52.1035 73.3923 52.1035ZM76.8779 52C76.7859 52 76.7399 51.9578 76.7399 51.8735C76.7399 51.7968 76.7821 51.7508 76.8664 51.7355L77.0274 51.7125C77.1884 51.6895 77.3073 51.6435 77.3839 51.5745C77.4606 51.5055 77.4989 51.3905 77.4989 51.2295V44.64C77.4989 44.502 77.4759 44.4062 77.4299 44.3525C77.3916 44.2988 77.3188 44.2682 77.2114 44.2605L76.9469 44.226C76.8626 44.2107 76.8204 44.1647 76.8204 44.088C76.8204 44.0113 76.8626 43.9653 76.9469 43.95C77.1616 43.904 77.3456 43.8503 77.4989 43.789C77.6523 43.7277 77.7788 43.6663 77.8784 43.605C78.0011 43.5283 78.0931 43.49 78.1544 43.49C78.2388 43.49 78.2809 43.5513 78.2809 43.674V51.2295C78.2809 51.3905 78.3039 51.5055 78.3499 51.5745C78.4036 51.6358 78.5109 51.678 78.6719 51.701L78.9364 51.7355C79.0208 51.7508 79.0629 51.7968 79.0629 51.8735C79.0629 51.9578 79.0169 52 78.9249 52H76.8779ZM80.8653 52.1035C80.597 52.1035 80.3746 52.0115 80.1983 51.8275C80.0296 51.6358 79.9453 51.3253 79.9453 50.896V46.595C79.9453 46.503 79.8993 46.457 79.8073 46.457H79.4738C79.3511 46.457 79.2898 46.411 79.2898 46.319C79.2898 46.2577 79.3243 46.204 79.3933 46.158C79.6463 45.9817 79.8495 45.7938 80.0028 45.5945C80.1561 45.3875 80.2903 45.1077 80.4053 44.755C80.459 44.594 80.5241 44.5135 80.6008 44.5135C80.6851 44.5135 80.7273 44.5748 80.7273 44.6975V45.974C80.7273 46.0813 80.781 46.135 80.8883 46.135H81.6358C81.7585 46.135 81.8198 46.1887 81.8198 46.296C81.8198 46.4033 81.7585 46.457 81.6358 46.457H80.8883C80.781 46.457 80.7273 46.5107 80.7273 46.618V50.9075C80.7273 51.0762 80.7541 51.2103 80.8078 51.31C80.8615 51.402 80.9611 51.448 81.1068 51.448C81.2678 51.448 81.3981 51.3675 81.4978 51.2065C81.6051 51.0455 81.6741 50.7848 81.7048 50.4245C81.7201 50.3172 81.77 50.2635 81.8543 50.2635C81.9463 50.2635 81.9923 50.321 81.9923 50.436C81.9693 51.0263 81.8466 51.4518 81.6243 51.7125C81.4096 51.9732 81.1566 52.1035 80.8653 52.1035ZM83.4619 45.0425C83.3009 45.0425 83.1629 44.985 83.0479 44.87C82.9405 44.755 82.8869 44.6093 82.8869 44.433C82.8869 44.2567 82.9405 44.1148 83.0479 44.0075C83.1629 43.8925 83.3009 43.835 83.4619 43.835C83.6229 43.835 83.757 43.8925 83.8644 44.0075C83.9717 44.1148 84.0254 44.2567 84.0254 44.433C84.0254 44.6093 83.9717 44.755 83.8644 44.87C83.757 44.985 83.6229 45.0425 83.4619 45.0425ZM82.4959 52C82.3809 52 82.3234 51.9578 82.3234 51.8735C82.3234 51.8045 82.3732 51.7585 82.4729 51.7355L82.6109 51.7125C82.8025 51.6818 82.9252 51.6358 82.9789 51.5745C83.0325 51.5055 83.0594 51.3905 83.0594 51.2295V47.3655C83.0594 47.2275 83.0364 47.1355 82.9904 47.0895C82.952 47.0358 82.8792 47.0013 82.7719 46.986L82.5304 46.9515C82.4307 46.9438 82.3809 46.9017 82.3809 46.825C82.3809 46.7637 82.4422 46.7215 82.5649 46.6985C82.8025 46.6602 82.9942 46.5988 83.1399 46.5145C83.2855 46.4302 83.4274 46.3267 83.5654 46.204C83.6344 46.135 83.6919 46.1005 83.7379 46.1005C83.8069 46.1005 83.8414 46.1465 83.8414 46.2385V51.2295C83.8414 51.3905 83.8644 51.5055 83.9104 51.5745C83.9564 51.6435 84.0445 51.6857 84.1749 51.701L84.4624 51.7355C84.5467 51.7508 84.5889 51.793 84.5889 51.862C84.5889 51.954 84.5314 52 84.4164 52H82.4959ZM85.0564 52C84.9414 52 84.8839 51.9578 84.8839 51.8735C84.8839 51.8045 84.9338 51.7585 85.0334 51.7355L85.1714 51.7125C85.3324 51.6818 85.4359 51.6358 85.4819 51.5745C85.5356 51.5055 85.5624 51.3905 85.5624 51.2295V47.3655C85.5624 47.2275 85.5394 47.1355 85.4934 47.0895C85.4551 47.0358 85.3823 47.0013 85.2749 46.986L85.0334 46.9515C84.9338 46.9438 84.8839 46.9017 84.8839 46.825C84.8839 46.7637 84.9453 46.7215 85.0679 46.6985C85.3056 46.6602 85.4858 46.5988 85.6084 46.5145C85.7388 46.4302 85.8729 46.3267 86.0109 46.204C86.0799 46.135 86.1374 46.1005 86.1834 46.1005C86.2524 46.1005 86.2869 46.1465 86.2869 46.2385V46.756C86.2869 46.825 86.3099 46.871 86.3559 46.894C86.4096 46.9093 86.4671 46.8863 86.5284 46.825C86.8351 46.5337 87.1034 46.3343 87.3334 46.227C87.5711 46.1197 87.8203 46.066 88.0809 46.066C88.4259 46.066 88.7019 46.1887 88.9089 46.434C89.1159 46.6717 89.2194 47.0243 89.2194 47.492V51.2295C89.2194 51.3905 89.2424 51.5055 89.2884 51.5745C89.3421 51.6358 89.4494 51.678 89.6104 51.701L89.8634 51.7355C89.9478 51.7508 89.9899 51.7968 89.9899 51.8735C89.9899 51.9578 89.9439 52 89.8519 52H87.9199C87.8126 52 87.7589 51.9578 87.7589 51.8735C87.7589 51.7968 87.8011 51.7508 87.8854 51.7355L88.0464 51.7125C88.2074 51.6895 88.3109 51.6435 88.3569 51.5745C88.4106 51.5055 88.4374 51.3905 88.4374 51.2295V47.6185C88.4374 47.2428 88.3684 46.9783 88.2304 46.825C88.0924 46.6717 87.8969 46.595 87.6439 46.595C87.3986 46.595 87.1763 46.6678 86.9769 46.8135C86.7853 46.9515 86.6319 47.1393 86.5169 47.377C86.4019 47.607 86.3444 47.8638 86.3444 48.1475V51.2295C86.3444 51.3905 86.3674 51.5055 86.4134 51.5745C86.4671 51.6435 86.5744 51.6857 86.7354 51.701L87.0459 51.7355C87.1303 51.7508 87.1724 51.793 87.1724 51.862C87.1724 51.954 87.1149 52 86.9999 52H85.0564ZM92.1603 54.4725C91.5776 54.4725 91.1176 54.3537 90.7803 54.116C90.4429 53.886 90.2743 53.6062 90.2743 53.2765C90.2743 53.1385 90.2934 53.012 90.3318 52.897C90.3701 52.7897 90.4506 52.6632 90.5733 52.5175C90.7036 52.3718 90.8991 52.184 91.1598 51.954C91.2518 51.8697 91.2978 51.793 91.2978 51.724C91.2978 51.6473 91.2518 51.5898 91.1598 51.5515C90.8838 51.4365 90.7189 51.2908 90.6653 51.1145C90.6116 50.9305 90.6768 50.7618 90.8608 50.6085L91.6888 49.8955C91.7808 49.8188 91.7769 49.7537 91.6773 49.7C91.3629 49.5467 91.1138 49.309 90.9298 48.987C90.7458 48.665 90.6538 48.32 90.6538 47.952C90.6538 47.5993 90.7304 47.2812 90.8838 46.9975C91.0371 46.7138 91.2441 46.4877 91.5048 46.319C91.7654 46.1503 92.0568 46.066 92.3788 46.066C92.5628 46.066 92.7391 46.0967 92.9078 46.158C93.0151 46.1963 93.0803 46.1618 93.1033 46.0545C93.1723 45.7632 93.2988 45.537 93.4828 45.376C93.6744 45.2073 93.8623 45.123 94.0463 45.123C94.2226 45.123 94.3644 45.1767 94.4718 45.284C94.5868 45.3837 94.6443 45.5102 94.6443 45.6635C94.6443 45.7938 94.6059 45.8973 94.5293 45.974C94.4526 46.0507 94.3568 46.089 94.2418 46.089C94.1421 46.089 94.0693 46.0698 94.0233 46.0315C93.9773 45.9932 93.9351 45.9548 93.8968 45.9165C93.8584 45.8782 93.7971 45.859 93.7128 45.859C93.5288 45.859 93.4138 45.9587 93.3678 46.158C93.3448 46.2347 93.3448 46.2998 93.3678 46.3535C93.3984 46.4072 93.4406 46.4608 93.4943 46.5145C93.6783 46.6908 93.8201 46.9055 93.9198 47.1585C94.0271 47.4115 94.0808 47.6913 94.0808 47.998C94.0808 48.366 94.0041 48.6957 93.8508 48.987C93.7051 49.2783 93.5019 49.5083 93.2413 49.677C92.9883 49.8457 92.7008 49.93 92.3788 49.93C92.2408 49.93 92.1219 49.9607 92.0223 50.022C91.9226 50.0757 91.8229 50.1562 91.7233 50.2635L91.5278 50.482C91.4281 50.6047 91.3974 50.7235 91.4358 50.8385C91.4818 50.9458 91.5891 50.9995 91.7578 50.9995H92.7468C93.2988 50.9995 93.7358 51.1375 94.0578 51.4135C94.3798 51.6818 94.5408 52.0537 94.5408 52.529C94.5408 52.9047 94.4334 53.2382 94.2188 53.5295C94.0041 53.8208 93.7166 54.0508 93.3563 54.2195C93.0036 54.3882 92.6049 54.4725 92.1603 54.4725ZM92.3673 49.6425C92.6433 49.6425 92.8618 49.493 93.0228 49.194C93.1838 48.895 93.2643 48.4887 93.2643 47.975C93.2643 47.4767 93.1799 47.078 93.0113 46.779C92.8503 46.4723 92.6356 46.319 92.3673 46.319C92.0989 46.319 91.8804 46.4723 91.7118 46.779C91.5508 47.078 91.4703 47.4767 91.4703 47.975C91.4703 48.4887 91.5508 48.895 91.7118 49.194C91.8728 49.493 92.0913 49.6425 92.3673 49.6425ZM92.2983 54.2195C92.5743 54.2195 92.8273 54.1582 93.0573 54.0355C93.2873 53.9128 93.4674 53.7403 93.5978 53.518C93.7358 53.3033 93.8048 53.058 93.8048 52.782C93.8048 52.437 93.7013 52.1725 93.4943 51.9885C93.2949 51.7968 93.0113 51.701 92.6433 51.701H92.3788C92.1411 51.701 91.9609 51.724 91.8383 51.77C91.7233 51.816 91.6121 51.8965 91.5048 52.0115C91.2671 52.2645 91.1176 52.4677 91.0563 52.621C90.9949 52.7743 90.9643 52.9315 90.9643 53.0925C90.9643 53.4298 91.0793 53.702 91.3093 53.909C91.5469 54.116 91.8766 54.2195 92.2983 54.2195Z" fill="white"/>
</svg>
