<svg width="16" height="19" viewBox="0 0 16 19" fill="none" xmlns="http://www.w3.org/2000/svg">
<g clip-path="url(#clip0_1037_14470)">
<path d="M15.835 9.25C15.7881 9.76562 15.5068 10.0469 14.9912 10.0938H3.07324L7.74902 14.5586C8.07715 14.9336 8.07715 15.332 7.74902 15.7539C7.37402 16.082 6.97559 16.082 6.55371 15.7539L0.366211 9.84766C0.202148 9.68359 0.120117 9.48438 0.120117 9.25C0.120117 9.01562 0.202148 8.81641 0.366211 8.65234L6.55371 2.74609C6.97559 2.41797 7.37402 2.41797 7.74902 2.74609C8.07715 3.16797 8.07715 3.56641 7.74902 3.94141L3.07324 8.40625H15.0264C15.5186 8.45312 15.7881 8.73438 15.835 9.25Z" fill="#007BFF"/>
</g>
<defs>
<clipPath id="clip0_1037_14470">
<rect width="15.75" height="18.5" fill="white" transform="matrix(1 0 0 -1 0.120117 18.5)"/>
</clipPath>
</defs>
</svg>
