<svg width="42" height="35" viewBox="0 0 42 35" fill="none" xmlns="http://www.w3.org/2000/svg">
<path d="M41.3438 0H0.65625C0.482202 0 0.315282 0.0691406 0.192211 0.192211C0.0691404 0.315282 0 0.482202 0 0.65625L0 34.125C0 34.299 0.0691404 34.466 0.192211 34.589C0.315282 34.7121 0.482202 34.7812 0.65625 34.7812H41.3438C41.5178 34.7812 41.6847 34.7121 41.8078 34.589C41.9309 34.466 42 34.299 42 34.125V0.65625C42 0.482202 41.9309 0.315282 41.8078 0.192211C41.6847 0.0691406 41.5178 0 41.3438 0ZM37.4062 2.625H38.7188C38.8928 2.625 39.0597 2.69414 39.1828 2.81721C39.3059 2.94028 39.375 3.1072 39.375 3.28125C39.375 3.4553 39.3059 3.62222 39.1828 3.74529C39.0597 3.86836 38.8928 3.9375 38.7188 3.9375H37.4062C37.2322 3.9375 37.0653 3.86836 36.9422 3.74529C36.8191 3.62222 36.75 3.4553 36.75 3.28125C36.75 3.1072 36.8191 2.94028 36.9422 2.81721C37.0653 2.69414 37.2322 2.625 37.4062 2.625ZM33.4688 2.625H34.7812C34.9553 2.625 35.1222 2.69414 35.2453 2.81721C35.3684 2.94028 35.4375 3.1072 35.4375 3.28125C35.4375 3.4553 35.3684 3.62222 35.2453 3.74529C35.1222 3.86836 34.9553 3.9375 34.7812 3.9375H33.4688C33.2947 3.9375 33.1278 3.86836 33.0047 3.74529C32.8816 3.62222 32.8125 3.4553 32.8125 3.28125C32.8125 3.1072 32.8816 2.94028 33.0047 2.81721C33.1278 2.69414 33.2947 2.625 33.4688 2.625ZM40.6875 33.4688H1.3125V6.5625H40.6875V33.4688Z" fill="url(#paint0_linear_1037_14182)"/>
<path d="M7.37779 23.93C7.55479 24.4529 7.79734 24.9513 8.09966 25.4131C7.80108 25.7514 7.64893 26.1943 7.67662 26.6446C7.7043 27.095 7.90956 27.5159 8.24732 27.815C8.58594 28.1128 9.02866 28.2644 9.47872 28.2367C9.92878 28.2091 10.3496 28.0044 10.6492 27.6674C11.1477 27.9194 11.6773 28.1047 12.2242 28.2186C12.2533 28.6504 12.4454 29.0549 12.7616 29.3504C13.0778 29.6459 13.4944 29.8102 13.9272 29.81H14.0289C14.2522 29.7975 14.4709 29.7408 14.6722 29.6433C14.8735 29.5458 15.0536 29.4093 15.2018 29.2418C15.3501 29.0743 15.4637 28.8791 15.5361 28.6674C15.6085 28.4558 15.6382 28.2318 15.6236 28.0086C16.1457 27.8323 16.643 27.5897 17.1034 27.2867C17.2681 27.447 17.4635 27.5722 17.6779 27.6547C17.8924 27.7373 18.1213 27.7755 18.3509 27.7671C18.5805 27.7587 18.806 27.7039 19.0138 27.6058C19.2216 27.5078 19.4074 27.3687 19.5599 27.1969C19.7124 27.025 19.8285 26.8241 19.9012 26.6061C19.9739 26.3881 20.0016 26.1577 19.9827 25.9287C19.9638 25.6997 19.8986 25.477 19.7912 25.2739C19.6838 25.0708 19.5363 24.8915 19.3576 24.7471C19.602 24.2523 19.7828 23.7286 19.8958 23.1885C20.119 23.1767 20.3376 23.1204 20.5388 23.0229C20.74 22.9255 20.9196 22.7887 21.0672 22.6208C21.2934 22.3684 21.4394 22.0543 21.4864 21.7186C21.5335 21.3829 21.4794 21.0408 21.3312 20.7359C21.183 20.431 20.9473 20.1772 20.6543 20.0068C20.3612 19.8364 20.024 19.7572 19.6858 19.7792C19.509 19.2546 19.2653 18.755 18.9606 18.2928C19.2595 17.9539 19.4116 17.5101 19.3833 17.059C19.355 16.6079 19.1486 16.1866 18.8097 15.8877C18.4707 15.5888 18.0269 15.4367 17.5758 15.465C17.1248 15.4933 16.7034 15.6997 16.4045 16.0386C15.9096 15.7947 15.3859 15.6139 14.8459 15.5005C14.8317 15.2774 14.7737 15.0593 14.6751 14.8587C14.5765 14.6581 14.4393 14.4789 14.2714 14.3314C14.1034 14.1839 13.908 14.0709 13.6964 13.999C13.4847 13.9271 13.261 13.8977 13.0379 13.9124C12.5886 13.9402 12.1687 14.1452 11.8704 14.4823C11.572 14.8194 11.4196 15.2611 11.4465 15.7105C10.9235 15.8886 10.4252 16.1323 9.96341 16.4356C9.62576 16.1367 9.18319 15.9842 8.73306 16.0116C8.28292 16.0389 7.86211 16.244 7.56318 16.5817C7.26425 16.9193 7.1117 17.3619 7.13908 17.812C7.16647 18.2622 7.37154 18.683 7.70919 18.9819C7.46645 19.4756 7.28781 19.9982 7.17763 20.5372C6.72817 20.5659 6.30827 20.7711 6.00951 21.1081C5.7866 21.3601 5.64332 21.6725 5.59774 22.0058C5.55215 22.3391 5.60632 22.6784 5.75339 22.981C5.90046 23.2836 6.13385 23.5358 6.42411 23.7059C6.71438 23.8759 7.04851 23.9562 7.38435 23.9366L7.37779 23.93ZM11.9256 19.8908C12.4511 19.4969 13.1083 19.321 13.7603 19.3997C14.4123 19.4784 15.0088 19.8056 15.4254 20.3133C15.8421 20.8209 16.0468 21.4697 15.9969 22.1245C15.947 22.7793 15.6464 23.3897 15.1576 23.8283C14.7417 24.1637 14.2317 24.3613 13.6984 24.3937C13.1651 24.426 12.6349 24.2915 12.1815 24.0088C11.84 23.7936 11.5545 23.5004 11.3486 23.1532C11.1427 22.8061 11.0223 22.4149 10.9973 22.012C10.9723 21.6092 11.0435 21.2062 11.2049 20.8362C11.3663 20.4662 11.6133 20.1399 11.9256 19.8842V19.8908Z" fill="url(#paint1_linear_1037_14182)"/>
<path d="M22.1784 20.0418H22.2309C22.3867 20.57 22.6072 21.077 22.8872 21.5512C22.5893 21.8811 22.4322 22.3143 22.4494 22.7585C22.4667 23.2026 22.6568 23.6224 22.9794 23.9283C23.3019 24.2341 23.7312 24.4017 24.1756 24.3953C24.6201 24.3889 25.0444 24.209 25.358 23.894C25.8446 24.1561 26.3629 24.3546 26.9002 24.4846C26.9163 24.926 27.1033 25.3438 27.4217 25.6498C27.74 25.9559 28.1648 26.1264 28.6064 26.1253H28.6491C29.0979 26.1107 29.5226 25.9187 29.8302 25.5915C30.1377 25.2643 30.303 24.8285 30.2897 24.3796C30.8163 24.2252 31.3213 24.0047 31.7925 23.7234C31.9524 23.8797 32.1426 24.0016 32.3514 24.0818C32.5602 24.1619 32.7831 24.1985 33.0066 24.1893C33.2298 24.1851 33.45 24.1362 33.654 24.0455C33.858 23.9547 34.0418 23.824 34.1944 23.661C34.5044 23.3342 34.672 22.8976 34.6604 22.4472C34.6487 21.9968 34.4586 21.5695 34.132 21.2592C34.3928 20.7731 34.5913 20.256 34.7227 19.7203C35.1743 19.7089 35.603 19.5187 35.9144 19.1913C36.2257 18.8639 36.3943 18.4263 36.383 17.9746C36.3717 17.523 36.1814 17.0943 35.854 16.7829C35.5267 16.4716 35.089 16.303 34.6374 16.3143C34.4856 15.7857 34.265 15.2793 33.9811 14.8082C34.2912 14.4814 34.4588 14.0448 34.4471 13.5944C34.4354 13.144 34.2454 12.7167 33.9188 12.4063C33.7584 12.2541 33.5693 12.1354 33.3626 12.0571C33.1558 11.9787 32.9355 11.9424 32.7145 11.9503C32.4927 11.9543 32.2738 12.0022 32.0705 12.0912C31.8672 12.1802 31.6835 12.3085 31.53 12.4687C31.0427 12.208 30.5246 12.0096 29.9878 11.8781C29.9765 11.426 29.7861 10.9969 29.4584 10.6852C29.1307 10.3735 28.6926 10.2048 28.2406 10.2161C27.7885 10.2274 27.3594 10.4179 27.0477 10.7455C26.736 11.0732 26.5673 11.5113 26.5786 11.9634C26.0498 12.1177 25.5427 12.3382 25.0692 12.6196C24.9068 12.4658 24.7156 12.3455 24.5067 12.2655C24.2977 12.1856 24.0751 12.1475 23.8514 12.1536C23.6278 12.1597 23.4075 12.2098 23.2032 12.301C22.9989 12.3922 22.8146 12.5228 22.6608 12.6853C22.507 12.8477 22.3866 13.0389 22.3067 13.2478C22.2267 13.4568 22.1887 13.6794 22.1948 13.9031C22.2009 14.1267 22.251 14.347 22.3422 14.5512C22.4334 14.7555 22.564 14.9399 22.7264 15.0937C22.4643 15.5788 22.2669 16.0962 22.1391 16.6326C21.9158 16.6368 21.6957 16.6857 21.4917 16.7764C21.2876 16.8672 21.1039 16.9979 20.9513 17.1609C20.7224 17.4024 20.5693 17.7056 20.5108 18.0332C20.4524 18.3607 20.4912 18.6982 20.6224 19.004C20.7537 19.3097 20.9716 19.5703 21.2493 19.7536C21.527 19.9369 21.8523 20.0348 22.185 20.0353L22.1784 20.0418ZM26.9067 16.1634C27.1717 15.948 27.4772 15.788 27.8052 15.6929C28.1331 15.5978 28.4768 15.5695 28.8159 15.6098C29.155 15.6501 29.4826 15.7581 29.7791 15.9274C30.0757 16.0967 30.3352 16.3238 30.5423 16.5953C30.7494 16.8668 30.8998 17.1772 30.9847 17.5079C31.0695 17.8387 31.0871 18.1831 31.0363 18.5208C30.9855 18.8585 30.8674 19.1825 30.689 19.4737C30.5106 19.7648 30.2755 20.0172 29.9977 20.2157C29.4587 20.6009 28.791 20.7613 28.1359 20.6627C27.4808 20.5642 26.8897 20.2145 26.488 19.6878C26.0862 19.161 25.9052 18.4986 25.9834 17.8407C26.0616 17.1829 26.3927 16.5813 26.9067 16.1634Z" fill="url(#paint2_linear_1037_14182)"/>
<defs>
<linearGradient id="paint0_linear_1037_14182" x1="0.164062" y1="2.82925" x2="41.5078" y2="33.7969" gradientUnits="userSpaceOnUse">
<stop stop-color="#A30DA3"/>
<stop offset="1" stop-color="#0048FF"/>
</linearGradient>
<linearGradient id="paint1_linear_1037_14182" x1="5.64422" y1="15.2022" x2="23.2994" y2="26.1669" gradientUnits="userSpaceOnUse">
<stop stop-color="#A30DA3"/>
<stop offset="1" stop-color="#0048FF"/>
</linearGradient>
<linearGradient id="paint2_linear_1037_14182" x1="20.5465" y1="11.5097" x2="38.1961" y2="22.4503" gradientUnits="userSpaceOnUse">
<stop stop-color="#A30DA3"/>
<stop offset="1" stop-color="#0048FF"/>
</linearGradient>
</defs>
</svg>
