<svg width="16" height="19" viewBox="0 0 16 19" fill="none" xmlns="http://www.w3.org/2000/svg">
<g clip-path="url(#clip0_1037_14466)">
<path d="M0.165039 9.25C0.211914 9.76562 0.493164 10.0469 1.00879 10.0938H12.9268L8.25098 14.5586C7.92285 14.9336 7.92285 15.332 8.25098 15.7539C8.62598 16.082 9.02441 16.082 9.44629 15.7539L15.6338 9.84766C15.7979 9.68359 15.8799 9.48438 15.8799 9.25C15.8799 9.01562 15.7979 8.81641 15.6338 8.65234L9.44629 2.74609C9.02441 2.41797 8.62598 2.41797 8.25098 2.74609C7.92285 3.16797 7.92285 3.56641 8.25098 3.94141L12.9268 8.40625H0.973633C0.481445 8.45312 0.211914 8.73438 0.165039 9.25Z" fill="#007BFF"/>
</g>
<defs>
<clipPath id="clip0_1037_14466">
<rect width="15.75" height="18.5" fill="white" transform="matrix(-1 0 0 -1 15.8799 18.5)"/>
</clipPath>
</defs>
</svg>
